<svg version="1.1" id="Calque_1" xmlns="http://www.w3.org/2000/svg" x="0" y="0" viewBox="-177 269 256 255" style="enable-background:new -177 269 256 255" xml:space="preserve"><style>.st0{fill:#87c040}.st2{fill:#5698c6}.st3{fill:#446ba6}.st5{fill:#45ab47}</style><path class="st0" d="m-88 435.9 32.3-32.3h-48.6c-26.9 0-48.7 21.8-48.7 48.7 0 26.9 21.8 48.7 48.7 48.7 2 0 4-.1 6-.4-10.7-21-7.2-47.2 10.3-64.7"/><path class="st0" d="M-48.7 452.2v-45.7L-83 440.8l-.1.1c-19 19-19 49.8 0 68.8s49.8 19 68.8 0c1.4-1.4 2.7-3 4-4.5-22.3-7.3-38.4-28.3-38.4-53"/><path class="st0" d="m-9.3 435.9-32.3-32.3v48.6c0 26.9 21.8 48.7 48.7 48.7s48.7-21.8 48.7-48.7c0-2-.1-4-.4-6-21 10.6-47.2 7.2-64.7-10.3"/><path class="st0" d="M64.5 362.1c-1.4-1.4-3-2.7-4.5-4-7.3 22.3-28.3 38.4-53 38.4h-45.7l34.4 34.4c19 19 49.8 19 68.8 0 19.1-19 19.1-49.8 0-68.8"/><path d="M7 292.1c-2 0-4 .1-6 .4 10.6 20.9 7.2 47.2-10.3 64.6l-32.3 32.3H7c26.9 0 48.7-21.8 48.7-48.7 0-26.8-21.8-48.6-48.7-48.6" style="fill:#ed9a2d"/><path class="st2" d="M-14.3 283.3c-19-19-49.8-19-68.8 0-1.4 1.4-2.7 3-4 4.5 22.3 7.3 38.4 28.3 38.4 53v45.7l34.3-34.3.1-.1c19-19 19-49.8 0-68.8"/><path class="st2" d="m-88 357.2 1.4 1.4 30.8 30.8v-48.6c0-26.9-21.8-48.7-48.7-48.7s-48.7 21.8-48.7 48.7c0 2 .1 4 .4 6 21-10.6 47.3-7.1 64.8 10.4"/><path class="st2" d="m-157.2 434.5 1.2-3.3c.1-.1.1-.3.2-.4.5-1.2 1-2.3 1.6-3.5.1-.3.3-.5.4-.7.6-1.1 1.2-2.2 1.9-3.3.1-.1.1-.2.2-.3.6-1 1.3-2 2-3 .1-.2.3-.4.4-.6.7-1 1.5-2 2.3-2.9.2-.2.3-.4.5-.6.8-.9 1.6-1.8 2.4-2.6.1-.1.1-.2.2-.2.9-.9 1.8-1.8 2.8-2.6.2-.2.4-.4.6-.5 1-.8 1.9-1.6 2.9-2.4.1-.1.3-.2.4-.3.9-.7 1.9-1.3 2.9-2 .2-.1.4-.3.6-.4 1.1-.7 2.2-1.3 3.3-1.9.2-.1.5-.2.7-.4 1.1-.6 2.2-1.1 3.4-1.6.1 0 .1 0 .2-.1 1.2-.5 2.4-1 3.6-1.4.3-.1.5-.2.8-.3 1.2-.4 2.4-.8 3.7-1.1.2 0 .4-.1.6-.1 1.2-.3 2.3-.5 3.5-.7.2 0 .4-.1.7-.1 1.3-.2 2.6-.4 3.9-.5.3 0 .6 0 .9-.1 1.4-.1 2.7-.2 4.1-.2h45.7L-93 362c-19-19-49.8-19-68.8 0s-19 49.8 0 68.8c1.4 1.4 2.9 2.8 4.5 4 0 0 0-.1.1-.3"/><path class="st3" d="m-92.9 362.1 27.2 27.2h-38.7c-22.3 0-41.1-15-46.8-35.4 18.5-10.3 42.4-7.6 58.3 8.2M-55.8 340.8v38.5l-25.9-25.9-1.5-1.4c-15.8-15.8-18.5-39.6-8.1-58.2 20.5 5.8 35.5 24.6 35.5 46.8v.2M-14.1 352.1l-27.2 27.2v-38.7c0-22.3 15-41.1 35.4-46.8 10.3 18.6 7.6 42.4-8.2 58.3"/><path d="M7 389.3h-38.5l25.9-25.9 1.4-1.5c15.8-15.8 39.6-18.5 58.2-8.1-5.8 20.5-24.6 35.5-46.8 35.5H7" style="fill:#fff101"/><path class="st5" d="m-4.4 430.7-27.2-27.2H7.1c22.3 0 41.1 15 46.8 35.4-18.5 10.3-42.4 7.7-58.3-8.2M-41.5 452v-38.5l25.9 25.9 1.5 1.4C1.6 456.6 4.3 480.4-6 499c-20.5-5.8-35.5-24.6-35.5-46.9v-.1M-82.8 440.9l27.2-27.2v38.7c0 22.3-15 41.1-35.4 46.8-10.4-18.5-7.7-42.4 8.2-58.3M-104.2 403.7h38.5l-25.9 25.9-1.4 1.5c-15.8 15.8-39.6 18.5-58.2 8.1 5.8-20.5 24.6-35.5 46.9-35.5h.1"/></svg>