<svg xmlns="http://www.w3.org/2000/svg" viewBox="0 0 800 649.5" style="enable-background:new 0 0 800 649.5" xml:space="preserve"><style>.st0{opacity:.6}.st1{fill:#5700ff}.st2,.st4{opacity:.6;fill:#00d1b2}.st4{fill:#5700ff}</style><g id="_x33_45"><g class="st0"><path class="st1" d="M58.3 554.6c-2 0-3.7-1.7-3.7-3.7v-25.5c0-2 1.7-3.7 3.7-3.7s3.7 1.7 3.7 3.7v25.5c.1 2.1-1.6 3.7-3.7 3.7z"/><path class="st1" d="M71.1 541.9H45.6c-2 0-3.7-1.7-3.7-3.7s1.7-3.7 3.7-3.7h25.5c2 0 3.7 1.7 3.7 3.7.1 2-1.6 3.7-3.7 3.7z"/></g><path class="st2" d="M695.6 339.1c0-16.3-13.2-29.5-29.5-29.5h-21.8c-13.4 0-24.3-10.9-24.3-24.3v-9.7c0-13.4-10.9-24.3-24.3-24.3h-3.2c-13.4 0-24.3-10.9-24.3-24.3v-9.7c0-13.4-10.9-24.3-24.3-24.3h-39.6c-13.4 0-24.3-10.9-24.3-24.3V159c0-13.4-10.9-24.3-24.3-24.3H300c-13.4 0-24.3 10.9-24.3 24.3v9.8c0 13.4-10.9 24.3-24.3 24.3h-46.2c-13.4 0-24.3 10.9-24.3 24.3v9.7c0 13.4-10.9 24.3-24.3 24.3H92.1c-16.3 0-29.5 13.2-29.5 29.5s13.2 29.5 29.5 29.5h14.8c13.4 0 24.3 10.9 24.3 24.3v9.7c0 13.4 10.9 24.3 24.3 24.3h10c15.9 0 28.8 12.9 28.8 28.8s-12.9 28.8-28.8 28.8h-19.9c-16.3 0-29.5 13.2-29.5 29.5s13.2 29.5 29.5 29.5h42.6c13.4 0 24.3 10.9 24.3 24.3v9.7c0 13.4 10.9 24.3 24.3 24.3s24.3 10.9 24.3 24.3v9.7c0 13.4 10.9 24.3 24.3 24.3h236c13.4 0 24.3-10.9 24.3-24.3v-9.7c0-13.4 10.9-24.3 24.3-24.3h1.3c13.4 0 24.3-10.9 24.3-24.3v-9.7c0-13.4 10.9-24.3 24.3-24.3h17.2c16.3 0 29.5-13.2 29.5-29.5s-13.2-29.5-29.5-29.5h-8.8c-15.9 0-28.8-12.9-28.8-28.8s12.9-28.8 28.8-28.8h37.6c16.5-.1 29.7-13.3 29.7-29.6zM149.7 193.5H75c-16.3 0-29.4-13.2-29.4-29.4 0-16.3 13.2-29.4 29.4-29.4h74.7c16.3 0 29.4 13.2 29.4 29.4s-13.2 29.4-29.4 29.4zM640.5 134.6h-44.2c-16.3 0-29.4 13.2-29.4 29.4 0 16.3 13.2 29.4 29.4 29.4h44.2c16.3 0 29.4-13.2 29.4-29.4s-13.2-29.4-29.4-29.4zM746.9 310.3h-16.8c-16.3 0-29.5-13.2-29.5-29.5s13.2-29.5 29.5-29.5h16.8c16.3 0 29.5 13.2 29.5 29.5s-13.2 29.5-29.5 29.5z"/><path class="st2" d="M72.8 426.2H52.4c-15.9 0-28.8-12.9-28.8-28.8s12.9-28.8 28.8-28.8h20.5c15.9 0 28.8 12.9 28.8 28.8-.1 15.9-13 28.8-28.9 28.8zM633 601.9h56.6c16.1 0 29.2-13 29.2-29.2 0-16.1-13-29.2-29.2-29.2H633c-16.1 0-29.2 13-29.2 29.2.1 16.1 13.2 29.2 29.2 29.2zM169.7 601.9h-67.3c-16.1 0-29.2-13-29.2-29.2 0-16.1 13-29.2 29.2-29.2h67.3c16.1 0 29.2 13 29.2 29.2 0 16.1-13.1 29.2-29.2 29.2z"/><g class="st0"><path class="st1" d="M537 73.3c-2 0-3.7-1.7-3.7-3.7V44.1c0-2 1.7-3.7 3.7-3.7s3.7 1.7 3.7 3.7v25.4c0 2.1-1.6 3.8-3.7 3.8z"/><path class="st1" d="M549.7 60.6h-25.4c-2 0-3.7-1.7-3.7-3.7s1.7-3.7 3.7-3.7h25.4c2 0 3.7 1.7 3.7 3.7.1 2-1.6 3.7-3.7 3.7z"/></g><g class="st0"><path class="st1" d="M261.2 104.2c-2 0-3.7-1.7-3.7-3.7V75c0-2 1.7-3.7 3.7-3.7s3.7 1.7 3.7 3.7v25.5c0 2-1.7 3.7-3.7 3.7z"/><path class="st1" d="M273.9 91.4h-25.5c-2 0-3.7-1.7-3.7-3.7s1.7-3.7 3.7-3.7h25.5c2 0 3.7 1.7 3.7 3.7s-1.6 3.7-3.7 3.7z"/></g><g class="st0"><path class="st1" d="M653.4 253.1c-2 0-3.7-1.7-3.7-3.7v-25.5c0-2 1.7-3.7 3.7-3.7s3.7 1.7 3.7 3.7v25.5c0 2-1.7 3.7-3.7 3.7z"/><path class="st1" d="M666.1 240.3h-25.5c-2 0-3.7-1.7-3.7-3.7s1.7-3.7 3.7-3.7h25.5c2 0 3.7 1.7 3.7 3.7s-1.6 3.7-3.7 3.7z"/></g><g class="st0"><path class="st1" d="M734.2 529.4c-2 0-3.7-1.7-3.7-3.7v-25.5c0-2 1.7-3.7 3.7-3.7s3.7 1.7 3.7 3.7v25.5c.1 2-1.6 3.7-3.7 3.7z"/><path class="st1" d="M747 516.7h-25.5c-2 0-3.7-1.7-3.7-3.7s1.7-3.7 3.7-3.7H747c2 0 3.7 1.7 3.7 3.7.1 2-1.6 3.7-3.7 3.7z"/></g><path d="M498 551.5H305.5c-16.3 0-29.5-13.2-29.5-29.5V143.5c0-16.3 13.2-29.5 29.5-29.5H498c16.3 0 29.5 13.2 29.5 29.5V522c0 16.3-13.3 29.5-29.5 29.5z" style="fill:#fff"/><path class="st4" d="M280.1 464.8c0 2.1-1.4 3.4-3.4 3.4-2.1 0-4.1-1.4-4.1-3.4V142.1c0-7.6 3.4-14.4 8.9-19.9 4.8-4.8 11.7-8.2 19.9-8.2h197.4c8.2 0 15.1 3.4 19.9 8.2l.7.7c4.8 4.8 8.2 11.6 8.2 19.2v381.7c0 7.5-3.4 14.4-8.9 19.8-4.8 4.8-11.6 8.2-19.9 8.2H301.3c-8.2 0-15.1-3.4-19.9-8.2-5.5-5.5-8.9-12.3-8.9-19.8 0-2.1 2.1-4.1 4.1-4.1 2.1 0 3.4 2.1 3.4 4.1 0 5.5 2.7 11 6.2 14.4 4.1 4.1 8.9 6.2 15.1 6.2h197.4c6.2 0 11-2.1 15.1-6.2 3.4-3.4 6.2-8.9 6.2-14.4V142.1c0-5.5-2.7-10.3-6.2-14.4-4.1-4.1-8.9-6.2-15.1-6.2H301.3c-6.2 0-11 2.1-15.1 6.2-3.4 3.4-6.2 8.9-6.2 14.4v322.7z"/><path class="st4" d="M381.5 135.9h37c4.1 0 6.9 2.8 7.6 6.9 0 .7.7 2.1.7 3.4 0 1.4-.7 2.1-.7 3.4-.7 4.1-3.4 6.8-7.6 6.8h-37c-4.1 0-6.8-2.7-7.5-6.8 0-1.4-.7-2.1-.7-3.4 0-1.4.7-2.7.7-3.4.6-4.2 3.4-6.9 7.5-6.9zm37 6.8h-37s0 .7-.7 1.4v4.2l.7.7h37l.7-.7v-4.2c-.7-.7-.7-1.4-.7-1.4zM400 492.9c-4.1 0-7.6 2.1-10.3 4.1-2.7 2.7-4.1 6.8-4.1 10.9 0 4.1 1.4 7.5 4.1 10.3 2.7 2.7 6.2 4.1 10.3 4.1 4.1 0 7.5-1.4 10.3-4.1 2.7-2.7 4.1-6.2 4.1-10.3 0-4.1-1.4-8.2-4.1-10.9-2.8-2.1-6.2-4.1-10.3-4.1zm-15.8-.7c4.1-4.1 9.6-6.9 15.8-6.9 6.2 0 11.6 2.7 15.7 6.9 4.1 4.1 6.2 9.6 6.2 15.8 0 5.5-2.1 11-6.2 15.1s-9.6 6.8-15.7 6.8c-6.2 0-11.7-2.7-15.8-6.8-4.1-3.5-6.2-9.6-6.2-15.1.1-6.2 2.1-11.7 6.2-15.8zM321.2 172.9c2.1 0 4.1 1.4 4.1 3.4 0 2.1-2.1 4.1-4.1 4.1h-17.8V462h193.2V180.4H376c-2.1 0-3.4-2.1-3.4-4.1 0-2.1 1.4-3.4 3.4-3.4h124.7c2 0 3.4 1.4 3.4 3.4v289.2c0 2-1.4 4.1-3.4 4.1H299.3c-2.1 0-3.4-2.1-3.4-4.1V176.3c0-2.1 1.4-3.4 3.4-3.4h21.9z"/><path d="M360.2 172.9c2.1 0 4.1 1.4 4.1 3.4 0 2.1-2.1 4.1-4.1 4.1-2.1 0-3.4-2.1-3.4-4.1 0-2 1.4-3.4 3.4-3.4z" style="opacity:.6;fill-rule:evenodd;clip-rule:evenodd;fill:#5700ff"/><g class="st0"><path class="st1" d="M348.5 268.5c-1.4-1.4-1.4-3.8 0-5.3l18.1-18.1c1.4-1.4 3.8-1.4 5.3 0 1.4 1.4 1.4 3.8 0 5.3l-18.1 18.1c-1.4 1.5-3.8 1.5-5.3 0z"/><path class="st1" d="m366.6 268.5-18.1-18.1c-1.4-1.4-1.4-3.8 0-5.3 1.4-1.4 3.8-1.4 5.3 0l18.1 18.1c1.4 1.4 1.4 3.8 0 5.3-1.5 1.5-3.8 1.5-5.3 0z"/></g><g class="st0"><path class="st1" d="M431.6 268.5c-1.4-1.4-1.4-3.8 0-5.3l18.1-18.1c1.4-1.4 3.8-1.4 5.3 0 1.4 1.4 1.4 3.8 0 5.3l-18.1 18.1c-1.5 1.5-3.9 1.5-5.3 0z"/><path class="st1" d="m449.6 268.5-18.1-18.1c-1.4-1.4-1.4-3.8 0-5.3 1.4-1.4 3.8-1.4 5.3 0l18.1 18.1c1.4 1.4 1.4 3.8 0 5.3s-3.8 1.5-5.3 0z"/></g><path d="M371 354.5c-.3 0-.5 0-.8-.1-1.2-.4-1.8-1.8-1.4-3 .1-.2 2.3-6.1 7.2-11.7 6.6-7.7 14.9-11.3 24-10.5.9.1 24.4 1.8 30.3 22.4.3 1.2-.4 2.5-1.6 2.8-1.2.3-2.5-.4-2.8-1.6-5-17.5-25.3-19-26.2-19.1-18.6-1.6-26.4 19.1-26.5 19.3-.4 1-1.3 1.5-2.2 1.5z" style="fill:#7b15ff" class="st0"/></g></svg>