<svg version="1.1" id="Layer_1" xmlns="http://www.w3.org/2000/svg" x="0" y="0" viewBox="0 0 500 500" style="enable-background:new 0 0 500 500" xml:space="preserve"><style>.st0{opacity:.11}.st1{fill:#ebebeb}.st2,.st4{fill:#e0e0e0}.st4{opacity:.11}.st6{fill:#fff}.st9{fill:#263238}.st10{fill:#0e0e1c}.st11{fill:#3f4e54}.st12{fill:#7f00ff}.st13{fill:#38384f}.st14,.st15{opacity:.12}.st15{fill:#e0e0e0}.st17{fill:#c58674}.st18{fill:#976558}.st19{fill:#455a64}.st20{fill:#ffbe9d}.st21{fill:#eb996e}.st22{opacity:.3}.st23{opacity:.2}</style><g id="Background_Complete"><g class="st0"><path class="st1" d="M382.8 41c0-3.4-1.3-6.8-3.3-9.6-2-2.7-4.7-5-7.8-6.1-3.4-1.1-7.2-.8-10.4.9-1.9 1-3.5 2.5-4.7 4.2-.8-1.8-2-3.4-3.4-4.6-2.7-2.3-6.4-3.5-10-3.1-3.4.4-6.5 2-9 4.3-2.6 2.3-4.6 5.3-5.3 8.6-1 4.2-.6 8.9 1.2 12.9 1.9 4.1 5.3 7.7 8.9 10.4 6.1 4.6 14.1 10.5 14.1 10.5s7.8-4.6 14.8-7.8c4.1-1.9 8.2-4.6 11-8.2 2.6-3.6 3.9-8.1 3.9-12.4z"/></g><g class="st0"><path class="st1" d="m66.2 209-4 .6L51.6 199l-1.3-7.9s-6.2.6-3.8 10.8 1.2 7.7 1.2 7.7-13 2.1-13.9 3.5c-.7.9 1.1 13.9 2.1 20.9.5 3.5 3.2 6.5 6.6 6.8h1.4c3.2-.5 19.3-5.8 19.3-5.8l6.8-1.1-3.8-24.9zM77.1 205.1l2 27.4-6.8 1.1-4.3-26.5z"/></g><g class="st0"><path class="st1" d="M373.1 255.1c4.9-1.2 8.9-5.4 9.9-10.9 1.2-7.3-3.3-14.1-10.2-15.3-6.8-1.1-13.4 3.8-14.6 11.1-.9 5.6 1.6 10.9 5.9 13.6-19.5-.2-22 20.6-22 20.6l45.1 7.5c-.1.1 4.4-20.6-14.1-26.6z"/></g><g class="st0"><path class="st2" d="M53.7 37.3h70.5v73.4H53.7z"/></g><g class="st0"><path class="st1" d="M48.9 37.3h70.5v73.4H48.9z"/></g><path style="fill:#fafafa" d="M58.4 47.1h51.5v53.7H58.4z" class="st0"/><path class="st4" d="M58.4 101.2s-.5.6-1.3 1.5-2 2-3.3 3.3-2.5 2.4-3.4 3.2c-.9.8-1.4 1.3-1.5 1.3 0 0 .5-.6 1.3-1.5s2-2 3.3-3.3 2.5-2.4 3.4-3.2c.9-.9 1.4-1.4 1.5-1.3z"/><path class="st2" d="M109.9 101.1s.6.5 1.5 1.3 2 2 3.3 3.3 2.4 2.5 3.2 3.4c.8.9 1.3 1.4 1.3 1.5 0 0-.6-.5-1.5-1.3s-2-2-3.3-3.3-2.4-2.5-3.2-3.4c-.9-1-1.3-1.5-1.3-1.5z"/><path class="st4" d="M109.8 47.3s.5-.6 1.3-1.5 2-2 3.3-3.3 2.5-2.4 3.4-3.2 1.4-1.3 1.5-1.3c0 0-.5.6-1.3 1.5s-2 2-3.3 3.3-2.5 2.4-3.4 3.2c-1 .8-1.5 1.3-1.5 1.3zM58.2 47.4s-.6-.5-1.5-1.3-2-2-3.3-3.3-2.4-2.5-3.2-3.4c-.8-.8-1.3-1.4-1.2-1.4 0 0 .6.5 1.5 1.3s2 2 3.3 3.3 2.4 2.5 3.2 3.4c.8.8 1.3 1.4 1.2 1.4z"/><path class="st4" d="M109.8 100.8V86c0-9.4-.1-22.8-.1-38.9l.2.2H58.5l.2-.2v53.7l-.2-.2c15.4 0 28.2.1 37.2.1H109.6c.1.1.2.1.2.1h-14c-9 0-21.9 0-37.3.1h-.2V46.8H110.1v.2c0 16.1-.1 29.5-.1 39v14.5l-.2.3z"/><g class="st0"><path class="st1" d="M72 69.6s-1.1 13.3 13.3 13.3c0-7.1-5.9-12.7-13.3-13.3z"/><path class="st1" d="M98.3 69.6S85 68.5 85 82.9c7.1 0 12.7-5.9 13.3-13.3z"/><path class="st2" d="M84.6 62.3s-10.9 9.7.6 20.6c5.4-5.7 4.9-14.5-.6-20.6z"/></g><g class="st0"><path class="st1" d="M48.7 465.1s-13.5-69.9-13.5-84.3c0-19.9 15.2-27.8 15.2-27.8l-5.9-16.9h32.6L72 352.9s17.1 9.1 14.8 29.7c-4.5 38.6-11.6 82.5-11.6 82.5H48.7z"/></g><path class="st4" d="M79.8 360.9h-.4c-.2 0-.6-.1-1.1 0-.9 0-2.3.2-4 .9-1.6.7-3.4 2-5.1 3.9-.8 1-1.6 2.1-2.3 3.3-.7 1.2-1.5 2.6-2 4-.6 1.5-1 3.1-.9 4.8.1 1.7.7 3.5 1.9 4.8.6.7 1.4 1.2 2.3 1.4.9.3 1.9.2 2.8-.1 1.8-.6 3.3-2.3 3.9-4.2.6-2 0-4.2-1.4-5.8-1.4-1.7-3.4-2.8-5.6-3.2-2.2-.4-4.6 0-6.7.8-2.2.8-4.2 2.1-6 3.7-3.6 3.1-6.3 7.3-7.1 11.8-.4 2.2-.4 4.5.1 6.6s1.6 4 3.2 5.3c.8.6 1.7 1.1 2.7 1.2 1 .2 2-.1 2.8-.5 1.6-1 2.5-3 2.5-4.8 0-.9-.2-1.8-.5-2.6-.4-.8-.9-1.5-1.6-2-1.3-1.1-2.9-1.8-4.4-2-3.1-.6-6 .2-8.2 1.4-2.2 1.2-3.8 2.8-4.8 4.2-1.1 1.4-1.6 2.7-2 3.6-.3.9-.4 1.4-.5 1.4 0 0 .1-.5.4-1.4.3-.9.8-2.2 1.9-3.6 1-1.4 2.6-3.1 4.9-4.3 2.2-1.2 5.2-2.1 8.4-1.5 1.6.3 3.2.9 4.6 2.1.7.6 1.3 1.3 1.7 2.2.4.8.6 1.8.6 2.8 0 1.9-.9 4-2.7 5.1-.9.5-2 .8-3 .6-1.1-.1-2.1-.6-2.9-1.3-1.7-1.4-2.9-3.4-3.4-5.5-.6-2.2-.6-4.5-.1-6.8.9-4.6 3.5-8.9 7.3-12.1 1.9-1.6 3.9-2.9 6.2-3.8 2.2-.9 4.7-1.2 7-.8 2.3.4 4.4 1.6 5.8 3.4.7.9 1.2 1.9 1.5 3s.2 2.2-.1 3.3c-.6 2.1-2.2 3.8-4.2 4.5-1 .3-2.1.4-3 .1-1-.3-1.8-.9-2.5-1.6-1.3-1.4-2-3.3-2-5.1 0-1.8.4-3.4 1-4.9s1.4-2.8 2.1-4.1c.8-1.2 1.5-2.3 2.4-3.3 1.7-1.9 3.5-3.2 5.2-3.9 1.7-.7 3.1-.8 4-.8.8-.4 1.3-.2 1.3-.2zM80.6 413.7s.2 1.3-.3 3.6c-.2 1.1-.7 2.5-1.4 3.9-.8 1.5-1.9 3-3.4 4.4s-3.6 2.5-6 3.1-5.1.7-7.7-.1c-2.6-.8-5.2-2.5-6.9-4.9-1.8-2.4-2.9-5.5-2.7-8.7.1-1.6.7-3.2 1.9-4.3 1.2-1.1 3-1.3 4.4-.9 1.5.4 2.8 1.4 3.4 2.8.7 1.3.8 2.9.5 4.2-.3 1.4-1 2.6-1.9 3.6s-2 1.7-3.1 2.2c-2.3 1-4.6 1.1-6.7.8-2.1-.2-3.9-.9-5.3-1.6-1.5-.7-2.6-1.6-3.5-2.4-1.7-1.6-2.3-2.7-2.3-2.7l.2.2c.1.1.3.3.4.5.4.4 1 1.1 1.8 1.9.9.7 2 1.6 3.4 2.3 1.4.7 3.2 1.3 5.2 1.5s4.3.1 6.5-.9c1.1-.5 2.1-1.1 3-2.1.8-.9 1.5-2.1 1.7-3.4.3-1.3.2-2.7-.4-3.9-.6-1.2-1.8-2.1-3.2-2.5-1.3-.4-2.9-.2-4 .8s-1.6 2.5-1.8 4c-.2 3.1.8 6.1 2.6 8.4 1.7 2.3 4.2 4 6.7 4.8 2.6.8 5.2.7 7.5.1s4.3-1.7 5.8-3 2.6-2.8 3.4-4.3c.8-1.4 1.2-2.8 1.5-3.9s.3-2 .4-2.6v-.7c.3-.1.3-.2.3-.2zM74.6 446.6c0 .1-1.5-.7-3.9-1.4-.6-.2-1.3-.4-2-.5-.7-.2-1.5-.3-2.4-.4-1.7-.2-3.5-.2-5.5 0-1.9.2-3.8.7-5.4 1.2-.8.3-1.6.5-2.2.9-.7.3-1.3.6-1.9.9-2.2 1.2-3.5 2.3-3.5 2.2l.8-.8c.3-.2.6-.5 1.1-.8.4-.3.9-.6 1.5-.9s1.2-.7 1.9-1 1.5-.6 2.3-.9c1.6-.6 3.5-1 5.5-1.2s3.9-.2 5.6 0c.9.1 1.7.2 2.4.4.8.1 1.4.4 2.1.5.6.2 1.2.4 1.6.6.5.2.9.4 1.2.5.4.5.8.7.8.7z"/><path class="st2" d="M72.3 353.8s-.4.3-1.1.8-1.8 1.1-3.1 1.8c-2.7 1.4-6.5 3.1-11 4.3-4.5 1.2-8.7 1.7-11.7 1.8-1.5.1-2.7 0-3.6 0-.8 0-1.3-.1-1.3-.1s.5-.1 1.3-.1 2.1 0 3.6-.1c3-.2 7.1-.7 11.6-1.9 4.4-1.2 8.3-2.8 11-4.1 1.3-.7 2.4-1.2 3.2-1.7.7-.5 1.1-.7 1.1-.7zM76.4 336.9s-.8-.1-2.2-.1c-1.4 0-3.5.2-6 1-1.2.4-2.5 1-3.8 1.7-.6.4-1.3.8-1.9 1.3-.6.5-1.2 1-1.8 1.7-.5.7-.9 1.4-1.1 2.2-.1.8.1 1.7.8 2.3.6.6 1.5 1 2.4 1.2s1.9.5 2.8.3 1.4-1.1 1.5-2-.1-1.8-.5-2.6c-.8-1.6-2.2-2.9-3.6-3.6-1.5-.8-3.1-1.2-4.6-1.2s-2.9.2-4.1.6c-2.4.8-4.2 2-5.4 2.8-.6.4-1 .8-1.3 1s-.5.4-.5.4.1-.2.4-.4c.3-.3.7-.6 1.3-1.1 1.1-.9 2.9-2.1 5.4-3 1.2-.4 2.7-.7 4.2-.7 1.5.1 3.2.4 4.8 1.2 1.5.8 3 2.1 3.8 3.8.4.9.7 1.9.6 2.9-.1.5-.2 1-.5 1.5-.3.4-.8.8-1.3.9-1.1.2-2.1-.1-3-.3-.9-.3-1.9-.6-2.6-1.3-.7-.7-1-1.8-.9-2.7.2-.9.6-1.8 1.2-2.4.5-.7 1.2-1.3 1.8-1.8s1.3-.9 2-1.3c1.3-.8 2.7-1.3 3.9-1.7 2.5-.8 4.6-.9 6.1-.8.7 0 1.3.1 1.7.1.2 0 .4.1.4.1z"/><path style="opacity:.11;fill:#ebebeb" d="M415.3 461.5V109.7H411v351.9l-36 2.7h76.4z"/><g class="st0"><path class="st2" d="m388.3 79-16.2 72.3h82.1l-18.5-72z"/></g><path class="st4" d="M403.3 180.6c-.2 0-.3-8.9-.3-19.8s.2-19.8.4-19.8.3 8.9.3 19.8-.2 19.8-.4 19.8z"/><path class="st4" d="M403.3 180.5c0-.1.6 0 .8.7.1.4.1.9-.2 1.3-.3.5-1.1.6-1.6.4-.6-.2-1-.8-1-1.4 0-.6.4-.9.7-1.1.7-.4 1.2-.1 1.1 0 0 .1-.4 0-.8.4-.2.2-.4.5-.4.8s.2.6.6.7c.4.1.7.1.9-.2.2-.2.3-.5.2-.8 0-.5-.3-.7-.3-.8z"/><g class="st0"><circle class="st1" cx="456.4" cy="205" r="27.6"/></g><g class="st0"><path class="st2" d="M481 197.1c.5-.1 1.1.6 1.6 1.9.6 1.4 1 3.5 1 6.1s-.5 5.8-1.8 9.1-3.5 6.7-6.5 9.5c-3.1 2.8-6.7 4.7-10 5.7-3.4 1-6.6 1.3-9.2 1-2.6-.2-4.7-.8-6-1.5s-1.9-1.3-1.8-1.8c.3-1 3.3-.8 7.6-1.6 4.3-.7 10.1-2.7 14.7-7s7.1-9.9 8.2-14.1c1.1-4.1 1.2-7.1 2.2-7.3z"/></g><g class="st0"><path class="st6" d="M458.5 211.5c2.8-.6 5.5-2.1 7.1-4.4.9-1.3 1.7-3.3 1.4-4.9-.3-1.6-1.8-3-3.4-3-1.2 0-2.2.7-3.1 1.5-.9.7-1.7 1.6-2.8 2-1.6.6-3.3.1-4.9-.3-1.6-.4-3.3-.9-4.9-.4-.9.3-2.1.8-2.4 2.1 0 0-.6 1.9 1.4 4.1 1.7 2 6 4.6 11.6 3.3z"/></g><g class="st0"><path class="st6" d="M444 197.6c-.6-.9-1.7-1.2-2.7-1-.3.1-.6.2-.8.4-.7.6-1 1.8-.7 2.7.4 1.3 2.1 1.9 3.3 1.3 1.2-.6 1.7-2.3.9-3.4z"/></g><g class="st0"><path class="st6" d="M470.1 194.3c-.6-.9-1.7-1.2-2.7-1-.3.1-.6.2-.8.4-.7.6-1 1.8-.7 2.7.4 1.3 2.1 1.9 3.3 1.3 1.2-.6 1.6-2.3.9-3.4z"/></g></g><g id="Floor"><path class="st6" d="M45.3 465.8h409.5"/><path class="st9" d="M454.7 465.8c0 .1-91.7.3-204.7.3-113.1 0-204.8-.1-204.8-.3 0-.1 91.7-.3 204.8-.3s204.7.1 204.7.3z"/></g><g id="Screen_2"><path class="st10" d="M174.9 223.1h178.9v237.7H174.9z"/><path class="st9" d="M353.8 460.8c0-2.1-.1-96.9-.2-237.7l.2.2H174.9l.3-.3v237.7l-.2-.2c108.2.2 177.1.3 178.8.3-1.8 0-70.7.1-178.9.2h-.2V222.8h179.4v.2c-.2 140.9-.3 235.7-.3 237.8z"/><path class="st11" d="M266.1 251.1c0 .1-10.9.3-24.4.3s-24.4-.1-24.4-.3c0-.1 10.9-.3 24.4-.3 13.5 0 24.4.1 24.4.3zM288.8 245.3c0 .1-16.1.3-35.9.3s-35.9-.1-35.9-.3c0-.1 16.1-.3 35.9-.3 19.8 0 35.9.1 35.9.3z"/><circle class="st12" cx="196.7" cy="245.3" r="9.4"/><path class="st6" d="M199 243.5c0 1.3-1.1 2.4-2.4 2.4-1.3 0-2.3-1.1-2.3-2.4 0-1.3 1.1-2.3 2.3-2.3 1.4-.1 2.4 1 2.4 2.3zM193.9 249.8c-.5-.2-.7-.8-.4-1.3.5-.9 1.4-2.2 3.2-2.2s2.7 1.3 3.2 2.2c.2.5 0 1-.4 1.3-1.1.5-3.2 1.2-5.6 0z"/><path class="st13" d="M183.9 354.3h77.7v75.2h-77.7z"/><g class="st14"><path class="st2" d="m189.9 423.1 21.5-38.7 17.6 24.7 10.7-13.1 15.9 27.1z"/></g><g class="st14"><path class="st2" d="M236.5 376.9c0 3.1-2.5 5.6-5.6 5.6s-5.6-2.5-5.6-5.6 2.5-5.6 5.6-5.6 5.6 2.5 5.6 5.6z"/></g><path class="st13" d="M266.2 354.3h77.7v75.2h-77.7z"/><g class="st14"><path class="st2" d="m272.2 423.1 21.5-38.7 17.6 24.7L322 396l15.9 27.1z"/></g><g class="st14"><path class="st2" d="M318.8 376.9c0 3.1-2.5 5.6-5.6 5.6s-5.6-2.5-5.6-5.6 2.5-5.6 5.6-5.6 5.6 2.5 5.6 5.6z"/></g><path class="st13" d="M184.5 263.5h159.8v83.3H184.5z"/><circle class="st15" cx="298.9" cy="290.8" r="8.9"/><path class="st15" d="m184.5 346.8 32.1-55.9 17.8 25.2 16.5-21.4 48 52.1z"/><path class="st15" d="m291.9 346.8 23.5-44.4 27.3 44.4z"/><path class="st9" d="M289.8 275c-1.5-1.4-3.9-1.8-5.8-.9-.2-2.5-1.9-4.7-4.2-5.6-2.3-.9-5.1-.5-6.9 1.2-2.9-3.9-13.6-1.5-14.3 5.9l15.2 26.2c2.2 2.2 5.8 2.8 8.6 1.4 2.8-1.3 4.6-4.5 4.2-7.6 2-.4 3.6-2 4.2-3.9s-.1-4.1-1.5-5.5c1.4-1.5 2.5-3.4 2.6-5.5.1-2.1-.6-4.3-2.1-5.7z"/><path d="M258.5 276c2.7-3.4 5.2-4.4 8.2-4.9 4.5-.8 9.6 0 13.3 2.8 3.4 2.5 5.3 6.7 5.8 10.9.2 1.5-.3 2.9-.7 4.3-.4 1.4-2 3.3-3.4 4-1.3.7-1.9.2-3-.7-.7-.6-1.1-1.5-1.5-2.3-1.6-3.5-3.4-7-6.1-9.7-2.7-2.8-6.4-4.7-10.3-4.6" style="fill:#ff725e"/><path class="st9" d="M278.6 282.9c-.5-1.3-.3-2.7-.4-4-.4-2.9-2.7-5.4-5.4-6.5-2.8-1.1-5.9-.9-8.7 0-2.1.7-4.1 1.8-5.5 3.5-1.9 2.2-2.4 5.7-1.6 8.5l14.8-2.2c1.4 1.2 2.8 2.4 4.5 3 .5.2 1 .3 1.6.3.5-.1 1-.4 1.2-.9 0-.5-.3-1.1-.5-1.7z"/><path class="st17" d="m263.7 276.6 13 2.9c1.3.1 2.2 1.2 2.2 2.4l-.5 28.3c0 1.9-.7 3.8-1.9 5.3l-1.3 1.6c-2.9 3.6-8.6 3.2-10.8-.9-.1-.3-.2-.5-.3-.7 0-.3-.1-.4-.1-.6-.3-2.2-.2-4.3-.2-4.3-.1-2.5-.1-3.6-.1-3.5 0 0-5.3-.7-6.6-7.7-.6-3.4-.6-9.1-.4-13.7.2-4.2 2.8-9.4 7-9.1z"/><path class="st9" d="M259.8 290.5c0 .5.4.9.9.9s.9-.4.9-.8c0-.5-.4-.9-.9-.9-.5-.1-.9.3-.9.8zM258 288.6c.1.1.8-.4 1.7-.4 1 0 1.7.4 1.8.3 0-.1-.1-.3-.4-.5s-.8-.4-1.4-.4-1.1.3-1.4.5c-.2.2-.3.4-.3.5zM268.5 290.3c0 .5.4.9.9.9s.9-.4.9-.8c0-.5-.4-.9-.9-.9s-.9.4-.9.8zM267.5 288.5c.1.1.8-.4 1.7-.4 1 0 1.7.4 1.8.3 0-.1-.1-.3-.4-.5s-.8-.4-1.4-.4-1.1.3-1.4.5c-.3.3-.4.5-.3.5zM264.2 295.7c0-.1-.6-.1-1.6-.2-.2 0-.5-.1-.5-.2-.1-.2 0-.4.1-.7.2-.6.4-1.2.7-1.9.9-2.7 1.6-4.9 1.5-4.9s-1 2.1-1.9 4.8c-.2.7-.4 1.3-.6 1.9-.1.3-.2.6-.1 1 .1.2.3.3.4.3h.4c1 0 1.6 0 1.6-.1z"/><path class="st18" d="M263.8 307.1s4.7.2 9.2-2.7c0 0-2.2 4.9-9.2 4.4v-1.7zM264.6 298c.3-.5.9-.7 1.5-.7.4 0 .8.2 1.1.6.3.3.3.8.1 1.1-.2.4-.8.5-1.2.4-.5-.1-.9-.4-1.2-.7l-.3-.3c-.1-.1-.1-.3 0-.4"/><path class="st9" d="M267 296.3c-.2 0-.1 1-1 1.8s-2 .7-2 .8c0 .1.3.2.7.2.5 0 1.1-.2 1.7-.6.5-.5.7-1.1.8-1.5 0-.5-.1-.7-.2-.7zM267.2 285.6c.1.3 1.1.1 2.2.2s2 .4 2.2.2c.1-.1-.1-.4-.5-.6s-1-.5-1.6-.5c-.7-.1-1.3.1-1.7.2-.4.2-.6.4-.6.5zM258.2 284.4c.2.2.8 0 1.6-.1s1.5.1 1.6-.1c.1-.1 0-.3-.3-.5s-.8-.4-1.3-.3c-.5 0-1 .2-1.3.5-.3.2-.4.4-.3.5z"/><path class="st9" d="M281 281c-1.3-4-7.2-9.5-11.4-9.2l-6.7 4.1c.4 2.3 2.2 4.3 4.4 4.9 1.2.4 2.6.4 3.3 1.5.7 1 .3 2.6 1 3.6.9 1.5 3.5 1.4 4.2 3 .3.7.2 1.5.5 2.2.4.9 2.8 2.1 3.8 1.8 1-.3 1-2 1.3-2.8.5-1.5.3-2.3.1-3.1-.4-2 .2-4.1-.5-6z"/><path class="st12" d="m283.6 278-.5 2.2c-.1-1.7-.3-3.3-1.2-4.5-1.7-2.5-5.4-4.2-8.3-5.1-2.9-.8-6.5-.3-9.3.8-2.1.8-4.1 2-6.2 4.9s-2.6 7.2-1.3 8c1-3 2.7-6.4 5.3-8.2 2.6-1.8 6-2.5 9.1-1.6 3.4 1 6 3.9 7.5 7.1.7 1.5 1.3 3.3 1.7 5.1.5 2 .5 4.2 0 6.2l-1.7 5.9v1.9c4.1-1.5 6.7-5.8 7.4-10.2.6-4.3.1-8.5-2.5-12.5z"/><path class="st17" d="M277.3 293.7c0-.5.6-1.8 1.1-1.8 1.4-.2 3.8-.2 3.9 3.3.2 4.7-4.6 3.9-4.6 3.8 0-.2-.3-3.5-.4-5.3z"/><path class="st18" d="M279.1 297s.1.1.2.1c.1.1.4.1.6 0 .5-.2.9-1 .9-1.9 0-.4-.1-.8-.3-1.2-.2-.3-.4-.6-.6-.6-.3 0-.4.1-.5.2s0 .2-.1.2c0 0-.1-.1-.1-.3 0-.1.1-.2.2-.3.1-.1.3-.1.5-.1.4 0 .7.3.9.7.2.4.3.8.3 1.3 0 1-.5 1.9-1.1 2.1-.3.1-.6 0-.8-.1-.1.1-.2-.1-.1-.1z"/><path class="st9" d="M283 297.4s.1-.2.2-.5.4-.8.6-1.4c.5-1.2.9-3.1.9-5.5 0-1.2-.2-2.5-.4-3.8-.2-1.4-.6-2.8-1.1-4.3s-1.3-2.9-2.4-4.3c-1-1.3-2.3-2.5-3.8-3.5-3-2-6.6-2.6-9.6-2.1-1.5.2-2.9.7-4.2 1.3-1.2.6-2.3 1.4-3.2 2.2-1.7 1.6-2.7 3.3-3.2 4.5-.3.6-.4 1.1-.5 1.4s-.2.5-.2.5 0-.2.1-.5.2-.8.5-1.5c.5-1.2 1.5-3 3.2-4.6.9-.8 1.9-1.6 3.2-2.2 1.3-.6 2.7-1.1 4.3-1.3 3.1-.5 6.7.2 9.8 2.2 1.5 1 2.9 2.2 3.9 3.6 1.1 1.4 1.8 2.9 2.4 4.3.5 1.5.9 3 1.1 4.3.2 1.4.4 2.7.4 3.9 0 2.4-.5 4.3-1 5.5-.2.6-.5 1.1-.6 1.4-.2.3-.3.4-.4.4z"/><path class="st19" d="M243.9 327.9s.8-6.3 3.8-9.5 16.2-7.2 16.2-7.2.1 4.6 3.1 5.7c3.2 1.2 6.4.5 8.7-2.2 2.3-2.7 2.7-6 2.7-6s15.9 1.5 18.4 5.6c2.5 4.2 5.7 20.3 5.7 20.3l-14.2 3-.5 9.1h-34.3l-.2-7.3-10.3 1.5.9-13z"/><path class="st9" d="M285.5 338.6s0-.2-.1-.6v-1.7c0-1.4 0-3.4.1-5.6 0-2.2.1-4.2.2-5.6 0-.7.1-1.3.1-1.7 0-.4.1-.6.1-.6s0 .2.1.6v1.7c0 1.4 0 3.4-.1 5.6 0 2.2-.1 4.2-.2 5.6 0 .7-.1 1.3-.1 1.7 0 .4 0 .6-.1.6zM249.8 327.2c.1 0 1 2.8 2 6.3s1.8 6.4 1.7 6.4-1-2.8-2-6.3-1.8-6.4-1.7-6.4zM295.3 313.4c0 .1-.7.2-1.7.6s-2.4 1.1-3.7 2.2c-1.3 1.1-2.2 2.4-2.7 3.3l-.8 1.6s0-.2.1-.5.3-.7.5-1.2c.5-1 1.4-2.3 2.7-3.5 1.3-1.1 2.7-1.8 3.8-2.2.5-.2 1-.3 1.3-.3h.5zM247.5 319.7c.1 0 .4.9.7 2s.4 2 .3 2c-.1 0-.4-.9-.7-2-.2-1-.4-1.9-.3-2z"/><path class="st17" d="m286.9 338-1.8 8.8h12.6l2.3-11.6zM253.3 339.4l-4.8.7-4.6-11.9-7.4 3 4.6 15.6h14.1z"/><path class="st17" d="M230.1 306.9s.7-.9 2.2.5 7.8 12 8.3 13 3.3 7.9 3.3 7.9l-6.4 4.5-1.1-1.5s-5.3-4.7-6.4-6c-1.1-1.3-2.6-3.2-2.6-3.5-.1-.3-.4-1.6.7-2 0 0-1-1.6-.1-2.5.9-.8 2.6-.1 2.6-.1l-5.6-7.3s-.5-2.2 1.1-1.4c1.6.8 5.9 7.1 6.7 7.2.8.2.8-.7.8-.7s-4.5-6.6-3.5-8.1z"/><path class="st18" d="M235.9 326s-.1-.1-.1-.3c-.1-.2-.2-.5-.2-.9-.1-.8-.1-2.1.8-3.2v.2c-.6-.7-1.2-1.5-1.9-2.3-.4-.3-.9-.5-1.4-.8-.2-.2-.5-.3-.7-.5s-.5-.3-.7-.6c-.2-.2-.3-.5-.3-.8s.1-.6.3-.8l.1-.1h.1c1.4.4 2.7.8 3.9 1.1 1.2.9 2.3 1.7 3.1 2.3.7.6 1.1.9 1.1.9s-.5-.3-1.2-.8c-.8-.6-1.9-1.3-3.1-2.2-1.2-.3-2.5-.7-3.9-1.1h.1c-.1.1-.2.3-.2.5s.1.4.3.5c.2.2.4.4.6.5.2.2.5.3.7.5.5.3.9.6 1.3.8.7.8 1.3 1.6 1.8 2.3l.1.1-.1.1c-.4.5-.7 1.1-.8 1.6s-.1 1-.1 1.4l.4 1.6zM230.7 317.5s.2.2.5.6.8 1.1 1.2 1.9c.2.4.5.9.7 1.4.1.3.2.6.1.9-.1.3-.4.6-.8.7-.4.1-.7 0-1-.2l-.9-.6c-.5-.5-1-1-1.4-1.6-.2-.3-.4-.7-.6-1l.3-.2c.9 1 1.6 2.1 2.1 3.1.1.3.2.6.2.9s-.2.6-.4.8c-.3.2-.6.1-.8 0s-.4-.2-.6-.4c-.6-.6-1.1-1.1-1.4-1.5-.3-.4-.4-.6-.4-.6s.6.8 1.9 1.9c.3.2.8.5 1.1.3.2-.1.3-.3.3-.6 0-.2-.1-.5-.2-.7-.5-1-1.2-2-2.1-3l.3-.2c.2.3.4.7.6 1 .4.6.8 1.1 1.4 1.6.5.4 1.1.8 1.6.7.3-.1.5-.2.5-.5.1-.2 0-.5-.1-.8-.2-.5-.4-1-.6-1.4-.4-.9-.8-1.5-1.1-2-.3-.2-.4-.5-.4-.5z"/><path class="st12" d="M324.5 442.6c0 1.7-1.3 3-3 3s-3-1.3-3-3 1.3-3 3-3 3 1.3 3 3z"/><path class="st19" d="M333.1 442.6c0 1.7-1.3 3-3 3s-3-1.3-3-3 1.3-3 3-3c1.6 0 3 1.3 3 3z"/><path class="st13" d="M341.7 442.6c0 1.7-1.3 3-3 3s-3-1.3-3-3 1.3-3 3-3 3 1.3 3 3z"/><path class="st11" d="M283.2 442.6c0 .1-21.9.3-49 .3s-49-.1-49-.3 21.9-.3 49-.3 49 .1 49 .3z"/><path class="st9" d="M344.3 346.8V324.4c0-14.4-.1-35.2-.1-60.8l.2.2c-42.2 0-98.3 0-159.8.1l.3-.3v83.3l-.2-.2c46.7 0 86.6.1 114.8.1 14.1 0 25.4.1 33.1.1H343.7c.3-.1.6-.1.6-.1h-11.9c-7.7 0-18.9 0-33 .1-28.3 0-68.3.1-115 .1h-.2v-83.8h.3c61.5 0 117.6 0 159.8.1h.2v.2c0 25.7-.1 46.5-.1 60.9V345.3c-.1 1-.1 1.5-.1 1.5zM261.6 429.5v-5.4c0-3.5 0-8.7-.1-15.3 0-13.1-.1-31.9-.1-54.4l.2.2h-77.7l.3-.3v75.2l-.2-.2c23.2 0 42.6.1 56.2.1 6.8 0 12.2 0 15.8.1H261.6h-5.5c-3.7 0-9 0-15.8.1-13.6 0-33.1.1-56.4.1h-.2V354h78.2v.2c0 22.6-.1 41.4-.1 54.6 0 6.6 0 11.7-.1 15.2v5c-.1.4-.1.5-.1.5zM344.3 429.5v-5.4c0-3.5 0-8.7-.1-15.3 0-13.1-.1-31.9-.1-54.4l.2.2h-77.7l.3-.3v75.2l-.2-.2c23.2 0 42.6.1 56.2.1 6.8 0 12.2 0 15.8.1H344.3h-5.5c-3.7 0-9 0-15.8.1-13.6 0-33.1.1-56.4.1h-.2V354h78.2v.2c0 22.6-.1 41.4-.1 54.6 0 6.6 0 11.7-.1 15.2v5c-.1.4-.1.5-.1.5z"/></g><g id="Screen_1"><path class="st10" d="M174.9 63.8h178.9v152.1H174.9z"/><path class="st9" d="M353.8 215.9V205c0-7.1 0-17.5-.1-30.8 0-26.6-.1-64.6-.1-110.3l.2.2H174.9l.3-.3v152.1l-.2-.2c53.3 0 98 .1 129.4.1 15.7 0 28.1 0 36.5.1H353.8 340.9c-8.4 0-20.8 0-36.5.1-31.4 0-76.2.1-129.5.1h-.2V63.5h179.4v.2c0 45.8-.1 83.9-.1 110.5 0 13.3 0 23.7-.1 30.8v8.1c0 1.9-.1 2.8-.1 2.8z"/><path class="st11" d="M266.1 91.9c0 .1-10.9.3-24.4.3s-24.4-.1-24.4-.3c0-.1 10.9-.3 24.4-.3 13.5 0 24.4.1 24.4.3z"/><path class="st13" d="M184.1 105.6h159.8v83.3H184.1z"/><path class="st12" d="M254.6 171.7c-2.3 4-10 17.1-10 17.1l11.5-1 3.3-20.6c-.1.1-2.5.5-4.8 4.5z"/><path class="st12" d="m292.3 160.2-26.6 4.3s-9.6 2-11 8l-.5 16.4h48.1l3.1-23.7-13.1-5z"/><path class="st20" d="m276.8 118 .7-.1c7.7-.2 12.1 6.2 12.1 13.9l2.6 28.4-19.5 14.4.6-11.9-.4-5.6s-7.4-.5-8.2-7.9c-.3-3.5-.5-10.9-.5-17.6 0-7.1 5.5-13 12.6-13.6z"/><path class="st21" d="M272.9 157.1s4.7 0 9.3-3.5c0 0-1.8 5.5-9.2 5.4l-.1-1.9z"/><path class="st9" d="M266.4 137.6c0 .6.5 1 1.1 1s1-.5 1-1c0-.6-.5-1-1.1-1s-1.1.4-1 1zM266 134.8c.1.1.9-.5 2-.6s2 .4 2.1.3c.1-.1-.1-.3-.5-.5s-1-.4-1.7-.4c-.7.1-1.3.4-1.6.7-.3.2-.4.4-.3.5zM276.6 137.1c0 .6.5 1 1.1 1s1-.5 1-1c0-.6-.5-1-1.1-1s-1 .4-1 1zM276.8 133.6c.1.1.9-.4 2.1-.4 1.1 0 1.9.6 2.1.5.1-.1-.1-.3-.4-.6s-1-.5-1.7-.6c-.7 0-1.3.2-1.7.5-.3.2-.4.5-.4.6zM273.9 143.1c0-.1-.7-.1-1.9-.2-.3 0-.6 0-.6-.2-.1-.2 0-.5.1-.9.2-.7.4-1.5.7-2.3.9-3.2 1.6-5.9 1.4-5.9-.1 0-1 2.5-1.9 5.8-.2.8-.4 1.6-.6 2.3-.1.3-.2.7-.1 1.1.1.2.3.3.5.4h.5c1.2.1 1.9 0 1.9-.1zM276.7 129.5c.1.3 1.3.1 2.6.1s2.4.3 2.6 0c.1-.1-.1-.4-.6-.7s-1.2-.5-2-.5-1.5.2-2 .4c-.5.3-.7.6-.6.7zM266 131.6c.2.2 1-.1 1.9-.2.9-.1 1.7 0 1.9-.3.1-.1-.1-.4-.4-.6-.4-.2-.9-.4-1.6-.3-.6.1-1.2.4-1.5.6-.3.4-.4.7-.3.8z"/><path class="st20" d="M289.5 137.3c.1-.1 4.9-1.9 5.2 3.1.3 5-4.9 4-4.9 4.1.1.3-.2-6.7-.3-7.2z"/><path class="st21" d="M291.3 142.5s.1.1.2.1c.1.1.4.1.7 0 .5-.2.9-1.1.9-2 0-.5-.1-.9-.3-1.2-.2-.4-.4-.6-.7-.6-.3 0-.5.1-.5.3-.1.1 0 .2 0 .3 0 0-.1-.1-.1-.3 0-.1.1-.2.2-.3s.3-.2.5-.2c.4 0 .8.3 1 .7s.4.9.4 1.4c0 1-.4 2-1.2 2.2-.3.1-.7 0-.8-.1-.3-.2-.3-.3-.3-.3z"/><path class="st9" d="M262.7 123.2c.1-1 .8-2 1.8-2.2-.5-.9-.3-2.1.5-2.8.8-.7 2-.7 2.9-.1-.2-1.5 1.6-2.9 3-2.4-.1-.9.4-1.8 1.3-2.1.8-.3 1.9 0 2.4.7.9-1.9 3.8-2.4 5.3-.9 1.9-.9 4.5 0 5.5 1.9 1.6-.1 3.3 1 3.9 2.5 1.1 0 2.1.6 2.6 1.5s.5 2.1 0 3c1.3.5 1.8 2.5.8 3.5.8.3 1.3 1.1 1.4 1.9s-.4 1.7-1.1 2.1c.7 0 1.1 1 1 1.7-.2.7-.6 1.3-.9 2.1-.2.6-.2 1.2-.4 1.8-.3 1.1-1.1 2.1-2.2 2.6l.1.1c.2.6-.7 1.2-1.3.9-.6-.2-1-.8-1.4-1.3-.5-.6-1-1.2-1.2-1.9s-.1-1.6.5-2c-.9-.2-1.5-1-1.8-1.9-.2-.9-.2-1.8-.1-2.7.1-1.3.2-2.7.4-4-1.8.1-3.7-.9-4.6-2.5-1.2 1.1-3.4.8-4.3-.7-.4 1.8-2.5 3.1-4.4 2.7.3 1-1.5 2.1-2.5 2.5s-2.3-.3-2.3-.3-1.7 1.2-2.7.9c-1-.3-2.4-1.4-1.8-2.4 0 0-.5-1.2-.4-2.2z"/><path class="st19" d="M292.8 125.8c-.1 0 0 .4-.4.7-.2.2-.5.3-.8.2-.3-.1-.7-.3-.8-.7l-.1-.3-.2.2c-.3.3-.9.5-1.4.3-.6-.2-.9-.8-.9-1.3v-.3l-.3.1c-.3.2-.7.2-1 .1s-.5-.3-.7-.5c-.3-.4-.3-.7-.3-.7s-.1.3.1.8c.1.2.4.5.7.7.4.1.8.2 1.3 0l-.3-.2c0 .7.4 1.4 1.1 1.6s1.3 0 1.7-.5l-.3-.1c.2.5.6.8 1.1.9.4.1.8-.1 1-.4.6-.2.5-.6.5-.6zM293.9 130.6s-.2.2-.5.3-1 .1-1.3-.4l-.1-.2-.1.2c-.3.3-.7.6-1.2.5s-1-.5-1-1.1v-.3l-.3.2c-.1 0-.1.1-.2.1-.4.1-.8 0-1-.3s-.3-.7-.1-1l.2-.3-.4.1c-.4.1-.9 0-1.2-.2-.3-.2-.5-.5-.6-.7-.2-.5-.1-.9-.2-.9 0 0-.2.3 0 .9.1.3.3.6.7.9.4.2.9.4 1.4.3l-.2-.2c-.2.4-.2 1 .1 1.4.3.4.9.6 1.5.4.1 0 .2-.1.3-.2l-.3-.1c.1.7.7 1.3 1.4 1.4.7.1 1.2-.2 1.5-.6h-.2c.2.3.6.5.9.5s.6 0 .7-.1c.2-.4.3-.6.2-.6zM271.5 115.5s.1-.2.5-.4c.2-.1.5-.1.7 0 .3.1.6.3.7.7l.1.3.1-.3c.2-.5.8-.9 1.5-1s1.5.4 1.8 1.1l.1.3.2-.3c.3-.5 1-.9 1.7-1s1.4.3 1.9.8c.2.2.3.5.4.8l.1.2.2-.1c.9-.3 2.1.1 2.5.9.5.8.3 1.8-.2 2.4l-.2.2h.3c.7.1 1.2.4 1.6.8s.5.9.5 1.3c.1.8-.2 1.2-.2 1.2s.1-.1.2-.3c.1-.2.2-.5.2-1 0-.4-.1-1-.5-1.4-.4-.5-1-.9-1.8-1l.1.2c.6-.7.7-1.8.2-2.7-.5-.9-1.8-1.5-2.9-1.1l.2.1c-.1-.3-.2-.7-.5-.9-.5-.7-1.4-1.1-2.2-1-.8.1-1.5.5-1.9 1.2h.3c-.4-.9-1.3-1.4-2.1-1.3-.8.1-1.4.6-1.7 1.2h.2c-.2-.4-.5-.7-.8-.8-.3-.1-.6 0-.8.1-.2.1-.3.2-.4.3-.1.4-.1.5-.1.5z"/><path class="st9" d="M277.3 143.6c-.2 0-.1 1.2-1.1 2.2s-2.3.9-2.3 1.1c0 .1.3.2.9.2.5 0 1.3-.3 1.9-.9.6-.6.8-1.3.8-1.8s-.2-.8-.2-.8zM219.4 159.7c-.6-2 0-4.1.3-6.2.4-3 .2-6 0-9.1-.2-3-.4-6.1.2-9 .6-3 2.1-5.9 4.5-7.6 2.5-1.7 6-2.1 8.5-.3l-.9 7.8c1.5 10.9 1.6 21.9.6 32.8-3.2.6-6.6.9-9.9.8-.7 0-1.5-.1-1.8-.7-.4-.7.1-1.6.4-2.4.3-1-.1-2.2-.5-3.1-.5-1-1.1-1.9-1.4-3z"/><path class="st12" d="M228.5 129.7c.9-1 2.1-1.8 3.4-2.2.5-.2 1.1-.3 1.6-.2.5.1 1 .6 1 1.2l-3 4.7c-.6.6-1.6.6-2.4.2-.6-.3-1.2-.7-1.4-1.4-.3-.8.2-1.7.8-2.3z"/><path class="st20" d="M248.4 172.7zM253.1 141.8c-.9-6.6-6.7-11.6-13.4-11.1-7.1.5-12.3 6.7-11.6 13.6l3.6 27.7c.1.5.3 1 .7 1.4 2.1 2 5.3 3.3 8 3.2 2.6-.1 5-1.3 6.9-2.9.6-.5.9-1.4.8-2.2l-1.1-6.1c.4 0 1.4-.2 1.7-.4 1.5-.7 5.4-3.1 5.6-9.4.2-2.3-.4-8.1-1.2-13.8z"/><path class="st9" d="M245.8 152.5c0-.1.7-.3 1.7-.5.3-.1.5-.1.6-.3 0-.2-.1-.5-.3-.8-.3-.6-.7-1.3-1.1-2-1.5-2.8-2.7-5.2-2.5-5.2.1-.1 1.4 2.2 3 5 .4.7.7 1.4 1.1 2 .1.3.4.6.3 1.1 0 .2-.2.4-.4.5s-.3.1-.5.1c-1.2 0-1.9.1-1.9.1zM251.5 146c.1.5-.3 1-.9 1.1-.6.1-1.1-.2-1.2-.8-.1-.5.3-1 .9-1.1.6-.1 1.1.3 1.2.8zM251.4 144.3c-.1.2-1-.3-2.1-.1s-1.7 1-1.9.9c-.1-.1 0-.4.3-.7.3-.4.8-.8 1.5-.9.7-.1 1.3.1 1.7.3.4.1.6.4.5.5zM241 147.5c.1.5-.3 1-.9 1.1-.6.1-1.1-.2-1.2-.8-.1-.5.3-1 .9-1.1.6-.1 1.1.3 1.2.8zM241 145.9c-.1.2-1-.5-2.2-.4s-2 .8-2.2.6c-.1-.1 0-.4.4-.7s1-.7 1.7-.7 1.4.2 1.8.5c.4.4.5.6.5.7z"/><path class="st21" d="M247.1 165.2s-4.2.8-9.9-1.6c0 0 2.4 5.3 10.2 3.6l-.3-2zM245.7 155.1c-.5-.5-1.2-.7-1.9-.5-.5.1-.9.4-1.2.8-.2.4-.2 1 .1 1.3.3.4 1 .4 1.5.2s.9-.6 1.3-1c.1-.1.2-.2.3-.4 0-.1 0-.3-.1-.4"/><path class="st9" d="M242.7 153.6c.2 0 .3 1.1 1.4 1.8 1.1.7 2.4.4 2.4.6 0 .1-.3.3-.8.3-.5.1-1.3 0-2-.4s-1-1.1-1.1-1.6c-.1-.4 0-.7.1-.7zM240.9 142.1c-.1.3-1.2.3-2.4.6-1.3.3-2.2.8-2.5.6-.1-.1 0-.4.4-.8.4-.3 1-.7 1.8-.9s1.5-.2 2 0c.5.1.7.3.7.5zM250.9 140.8c-.2.3-1 0-1.9.1-.9 0-1.7.3-1.9 0-.1-.1 0-.4.3-.6.3-.3.9-.5 1.5-.5s1.2.2 1.5.4c.5.3.6.5.5.6z"/><path class="st9" d="M240.4 129.1c-.7-.9-1.9-1.1-3.1-1-4.9.2-9.7 4.1-11.6 8.7-1.9 4.6-.9 10.6 1.9 14.7h1.9c3.7-.9 8-12.6 12.2-19.4.4-.9-.6-2.2-1.3-3z"/><path class="st9" d="M250.2 130.5c-2.4-1.9-6.2-4.1-10.1-1.7-.4 1.3 1.1 2.6 2.3 3.2 1.8 1 3.2 1.6 4.4 2.4 2.4 1.5 5.4 4.1 6.3 7.5.1.2.2.2.4.1.3-.1.6-1.6.6-3.6 0-4-1.5-6-3.9-7.9z"/><path class="st20" d="M230.2 148.9c-.1 0-4.9-.9-4.3 3.8.6 4.7 5.2 3.1 5.2 3 0-.1-.9-6.8-.9-6.8z"/><path class="st21" d="M229.5 154.1s-.1.1-.2.1c-.1.1-.4.2-.6.1-.5-.1-1-.9-1.2-1.7-.1-.4 0-.8.1-1.2s.3-.6.5-.7c.2-.1.4 0 .5.2.1.1.1.2.1.2s.1-.1 0-.3c0-.1-.1-.2-.2-.3-.1-.1-.3-.1-.5-.1-.4.1-.6.4-.8.8-.1.4-.2.9-.1 1.4.2.9.8 1.8 1.5 1.9.3 0 .6-.1.7-.2.2-.1.2-.2.2-.2z"/><path class="st19" d="M251.3 131.3s-.5.2-1.3.4-2 .4-3.3.5-2.5 0-3.4-.1-1.4-.2-1.4-.3c0 0 .5 0 1.4.1s2 .1 3.3 0 2.5-.2 3.3-.4c.9-.2 1.4-.3 1.4-.2zM253.5 134.4s-.3.2-1 .4c-.6.2-1.5.3-2.5.3s-1.9-.3-2.5-.5-1-.5-.9-.5c0-.1 1.5.7 3.5.7 1.8.1 3.3-.5 3.4-.4zM225.3 138.4c0-.1 1-.1 2.7-.4.8-.1 1.8-.4 2.8-.8 1-.4 2.1-.9 3.2-1.5s2.1-1.3 3-1.9c.9-.7 1.6-1.3 2.2-1.9 1.2-1.1 1.9-1.9 1.9-1.9s-.1.2-.4.6c-.1.2-.3.4-.6.6l-.8.8c-.6.6-1.3 1.2-2.2 1.9s-1.9 1.3-3 2c-1.1.6-2.3 1.1-3.3 1.5-1.1.3-2 .6-2.9.7-.4.1-.8.1-1.1.1s-.6.1-.9.1c-.3.2-.6.1-.6.1zM241.2 131.8s-.1.3-.3.7c-.1.2-.2.5-.4.8s-.3.7-.6 1c-.4.8-1 1.6-1.7 2.6-.7.9-1.6 1.8-2.6 2.7s-2.1 1.6-3.1 2.2c-1 .6-2 1-2.8 1.3-.4.2-.8.3-1.1.4-.3.1-.6.2-.9.2-.5.1-.7.1-.8.1 0-.1 1.1-.3 2.7-.9.8-.3 1.8-.7 2.8-1.3s2-1.3 3-2.1c1-.9 1.9-1.8 2.6-2.7.7-.9 1.3-1.7 1.8-2.5.9-1.5 1.3-2.5 1.4-2.5z"/><path class="st19" d="M237.3 128.1s.4-.1.9-.1c.6 0 1.4.3 2.1.9.2.1.3.3.5.5.1.2.2.4.3.5.2.3.3.7.4.9.2.6.1 1 .1 1s-.1-.4-.3-.9c-.1-.3-.3-.6-.5-.9-.1-.2-.2-.3-.3-.5l-.4-.4c-.7-.5-1.4-.8-2-.9-.4-.1-.8-.1-.8-.1z"/><path class="st9" d="M231.9 147c0-.1 1.1-.2 2.7-1s3.6-2.5 4.9-4.9c1.3-2.4 1.8-4.9 2.1-6.7.1-.9.2-1.6.2-2.1s.1-.8.1-.8v.8c0 .5 0 1.2-.1 2.1-.2 1.8-.7 4.3-2 6.8-1.4 2.5-3.4 4.1-5.1 4.9-.8.4-1.5.6-2 .7-.2.1-.4.1-.6.1-.1.1-.2.1-.2.1zM255.9 148.7s-.2.1-.6 0c-.2-.1-.4-.2-.5-.4s-.2-.5-.1-.9c.1-.3.3-.6.5-1 .2-.3.5-.7.7-1.1.1-.2.2-.5.2-.7 0-.3-.1-.5-.2-.8-.2-.5-.6-.9-1.1-1.2-.4-.3-.8-.6-1.1-1s-.4-.9-.4-1.3c0-.9.3-1.7.3-2.4s-.2-1.3-.4-1.6c-.1-.2-.2-.3-.3-.3l-.1-.1s.2.1.4.4c.2.3.4.9.3 1.5 0 .7-.3 1.5-.3 2.4 0 .5.1 1 .4 1.4.3.4.7.8 1.1 1.1.4.3.8.7 1 1.1.2.4.2.9 0 1.3s-.5.7-.7 1.1c-.2.3-.4.7-.5 1-.1.4 0 .7.1 1 .2.2.4.4.6.5.2.1.4 0 .5 0 .2.1.2 0 .2 0z"/><path class="st19" d="M226.4 149.6s0-.1-.1-.2c-.1-.2-.2-.4-.3-.7-.2-.6-.5-1.4-.8-2.5s-.5-2.4-.5-3.8c0-1.5.1-3.1.6-4.7.2-.8.6-1.6.9-2.3.4-.7.8-1.3 1.3-1.9.9-1.1 1.9-2 2.8-2.7.9-.7 1.7-1.1 2.2-1.4.3-.2.5-.3.6-.4.1-.1.2-.1.2-.1s-.1 0-.2.1-.4.2-.6.3c-.6.3-1.3.7-2.3 1.4-.9.6-1.9 1.5-2.9 2.6-.5.6-.9 1.2-1.3 1.9s-.7 1.5-1 2.3c-.5 1.6-.6 3.3-.6 4.8s.3 2.8.6 3.9.6 1.9.8 2.5c.1.3.2.5.3.7l.3.2z"/><path class="st9" d="M231.8 164.1s0-.1.1-.2.2-.3.3-.5c.2-.5.4-1.2.3-2.1 0-.5-.1-1-.3-1.5s-.6-1-.9-1.5c-.3-.5-.6-1.1-.3-1.7.2-.6.8-1 1.1-1.6.2-.3.2-.8 0-1.1s-.5-.5-.7-.7c-.4-.4-.5-1.1-.4-1.6.1-.6.4-1.1.7-1.5s.5-.9.7-1.3c.4-.9.2-1.7-.1-2.1l-.4-.4c-.1-.1-.2-.1-.2-.1s.3.1.6.5.4 1.2.1 2c-.2.4-.4.8-.7 1.3-.3.4-.6 1-.7 1.6-.1.3-.1.6 0 .9.1.3.2.6.5.9.2.2.5.4.6.7.2.3.2.6 0 .9-.3.6-.9 1-1.1 1.7-.1.3-.1.7 0 1s.2.6.4.8c.3.5.7.9.9 1.4s.3 1 .4 1.4c.1.9-.1 1.6-.3 2.1-.4.5-.6.7-.6.7zM216.7 164.1c0 .1.1.2.4.3.3.1.8 0 1.3-.3.2-.2.5-.4.7-.8.1-.2.2-.4.2-.6 0-.2.1-.4.1-.6 0-.9-.3-1.7-.8-2.6-.4-.8-1-1.6-1.1-2.3s.1-1.6.6-2.6c.4-1 1.1-2 1.6-3.4.4-1.3.7-2.7.8-4.1.2-2.8-.1-5.3-.1-7.5s.3-4.2.9-5.7c.5-1.5 1.3-2.6 2-3.3l.8-.8c.2-.2.3-.3.2-.4 0-.1-.2-.1-.4 0-.3.1-.6.2-1.1.5-.9.5-2 1.6-2.8 3.3s-1.4 3.8-1.5 6.2.1 4.9-.1 7.4c-.1 1.3-.3 2.5-.6 3.5-.3 1.1-.9 2.1-1.4 3.2-.2.6-.4 1.2-.5 1.8s-.1 1.3.1 2c.2.6.5 1.2.7 1.6.3.4.6.8.8 1.1.5.7.8 1.3.9 1.8v.7l-.3.6c-.8 1-1.4.9-1.4 1z"/><path class="st19" d="M248.9 172.1c-.4-.7-1.7-1.4-2.5-1.7L231 167v.4l-5 7.6-.3.9c-.7 2.2-3.2 5.6-3.2 12.9h35l-8.6-16.7z"/><path class="st19" d="M248.6 171.7c-3.4-2.2-6.1-1.2-6.1-1.2-4 1.5-7.6 10.7-3.9 18.3h21.8c0 .1-8.1-14.7-11.8-17.1z"/><path class="st20" d="M266.8 171.4s-1.6-2.3-1.8-3.3c-.1-.7.6-1.3 1.1-.9.4.4 3.8 4.8 3.8 4.8s1.1 6.9 1 8.5c0 1.6-.2 3.9-.1 5.1.1 1.2.2 3.3.2 3.3h-8.6l.2-3.2s-1-.3-1.7-1.1-2.8-2.2-3-3.5c-.3-1.2-.5-3.9-.5-3.9l1.4-1.2s-.4-2.4-.2-2.8c.2-.4 1.9-.6 1.9-.6s0-1.5 1-1.6c.9-.1 2 .8 2 .8s1.1-2.2 1.8-1.6c.7.3 1.5 1.2 1.5 1.2z"/><path class="st21" d="m269.1 173.6-1.2-1.2c-.6-.6-1.1-1.2-1.2-1.2 0 0 .4.7 1.1 1.3.7.7 1.3 1.1 1.3 1.1zM259.5 180.4c.1 0-.2-1-.3-2.3-.2-1.3-.2-2.3-.3-2.3-.1 0-.1 1 .1 2.3.1 1.4.4 2.4.5 2.3z"/><path class="st20" d="m265.8 170.4-3.8-4.1s-.7.6-.5 1.6 2.1 3.7 2.1 3.7l2.2-1.2zM263.5 171.6l-4.9-4.7s-.5.2-.5.8 2.4 4.9 2.4 4.9l3-1zM260.4 172.6l-3.7-4.9s-.6.4-.3 1.8c.4 1.5 2.9 6.2 2.9 6.2l1.1-3.1z"/><path class="st21" d="M262.8 172.6s.1 0 .4-.1c.2 0 .5 0 .8.1s.5.3.6.5.2.3.2.3 0-.2-.1-.4-.3-.5-.7-.6c-.3-.1-.7-.1-.9 0-.2.1-.3.2-.3.2zM263.4 171.4s.1.2.3.5c.2.2.4.4.5.3 0 0-.1-.3-.3-.5-.3-.2-.5-.4-.5-.3zM259.1 173.8s.5-.3 1.1-.3c.3 0 .6.1.8.2.2.1.2.2.2.2s0-.2-.2-.3-.5-.2-.9-.3c-.4 0-.7.1-.9.2 0 .2-.1.3-.1.3z"/><path class="st12" d="M311.3 175.2c-.5-7.1-5.8-10.1-5.8-10.1-2.8-.6-7.2 5.5-10 14l-2.1 9.7h19.1l-1.2-13.6z"/><path class="st11" d="M288.8 86.1c0 .1-16.1.3-35.9.3s-35.9-.1-35.9-.3c0-.1 16.1-.3 35.9-.3 19.8 0 35.9.1 35.9.3z"/><circle class="st13" cx="342" cy="80.4" r="1.3"/><circle class="st13" cx="342" cy="83.9" r="1.3"/><path class="st13" d="M343.3 87.4c0 .7-.6 1.3-1.3 1.3-.7 0-1.3-.6-1.3-1.3 0-.7.6-1.3 1.3-1.3.7 0 1.3.6 1.3 1.3z"/><circle transform="rotate(-22.362 196.723 86.087)" class="st12" cx="196.7" cy="86.1" r="9.4"/><path class="st6" d="M199 84.3c0 1.3-1.1 2.3-2.4 2.3-1.3 0-2.3-1.1-2.3-2.3 0-1.3 1.1-2.4 2.3-2.4 1.4 0 2.4 1.1 2.4 2.4zM193.9 90.6c-.5-.2-.7-.8-.4-1.3.5-.9 1.4-2.2 3.2-2.2s2.7 1.3 3.2 2.2c.2.5 0 1-.4 1.3-1.1.5-3.2 1.1-5.6 0z"/><path class="st12" d="M327.5 199.8c0 1.7-1.3 3-3 3s-3-1.3-3-3 1.3-3 3-3 3 1.3 3 3z"/><path class="st19" d="M336.1 199.8c0 1.7-1.3 3-3 3s-3-1.3-3-3 1.3-3 3-3 3 1.3 3 3z"/><path class="st13" d="M344.7 199.8c0 1.7-1.3 3-3 3s-3-1.3-3-3 1.3-3 3-3c1.6 0 3 1.3 3 3z"/><path class="st9" d="M343.9 188.9V166.5c0-14.4-.1-35.2-.1-60.8l.2.2c-42.2 0-98.3 0-159.8.1l.3-.3V189l-.2-.2c46.7 0 86.6.1 114.8.1 14.1 0 25.4.1 33.1.1H343.3c.3-.2.6-.1.6-.1H332c-7.7 0-18.9 0-33 .1-28.3 0-68.3.1-115 .1h-.2v-83.8h.3c61.5 0 117.6 0 159.8.1h.2v.2c0 25.7-.1 46.5-.1 60.9V187.4c-.1 1-.1 1.5-.1 1.5z"/><path class="st11" d="M284.8 201.3c0 .1-21.9.3-49 .3s-49-.1-49-.3c0-.1 21.9-.3 49-.3s49 .1 49 .3z"/></g><g id="Plant"><path class="st12" d="M441.7 378.2c-5.1-4.9-12.7-7-19.5-5.3-6.8 1.6-12.7 6.9-15 13.6l2.5 9.7c.9-3.3 3-6.5 6.1-7.8 3.3-1.4 7.1-.6 10.4.6s6.6 2.8 10.2 3.1c3.6.2 7.6-1.5 8.6-4.9 1-3.3-.9-6.7-3.3-9z"/><path d="M441.7 378.2c-5.1-4.9-12.7-7-19.5-5.3-6.8 1.6-12.7 6.9-15 13.6l2.5 9.7c.9-3.3 3-6.5 6.1-7.8 3.3-1.4 7.1-.6 10.4.6s6.6 2.8 10.2 3.1c3.6.2 7.6-1.5 8.6-4.9 1-3.3-.9-6.7-3.3-9z" class="st22"/><path class="st12" d="M381.5 410.4c-5.2-5-5-13.6-2.4-20.3 2.6-6.7 8.3-11.9 14.6-15.3 12.3-6.6 27.7-7.1 40.4-1.3-6.2.2-12.3 3.7-15.5 9.1-2.9 4.7-3.5 10.5-5.9 15.5-2.6 5.6-7.5 10.1-13.2 12.4-5.7 2.3-12.3 2.2-18-.1M379 380.6c-5.8-6.8-6.5-17.8-5.7-26.7.9-8.9 2.9-17.9 1.5-26.7-.8-5.2-2.9-10.2-3.5-15.5-.7-5.3.3-11.2 4.4-14.6 4.7-3.9 12-3 16.9.7s7.7 9.4 9.7 15.1c4.5 12.6 6.2 26.5 2.5 39.4-3.7 12.8-12.4 24.3-25.2 28.2"/><path class="st9" d="M376.2 436.6V433.5c.1-2 .3-4.8.7-8.3.4-3.5 1.1-7.6 2.2-12.1s2.9-9.3 5.5-14 5.8-8.7 9-12.1c3.2-3.3 6.5-5.9 9.5-7.9 1.4-1 2.8-1.8 4-2.5 1.2-.6 2.3-1.2 3.2-1.6.9-.4 1.6-.7 2.1-.9.5-.2.7-.3.7-.3s-.2.1-.7.4c-.5.2-1.2.6-2 1-.9.4-1.9 1-3.1 1.7s-2.6 1.5-4 2.5c-2.9 2-6.1 4.6-9.3 7.9-3.2 3.3-6.3 7.3-8.9 12-5.3 9.3-6.8 19.1-7.8 25.9-.5 3.5-.7 6.3-.8 8.2-.1.9-.1 1.7-.1 2.2-.2.7-.2 1-.2 1z"/><path class="st12" d="M326.4 353.7c-10.7 6.5-10.7 12.3-8.9 17.9 1.8 5.5 8.3 9.4 13.8 7.3 3.1-1.2 5.3-3.8 7.2-6.5 1.9-2.7 3.7-5.6 6.4-7.5 2.7-1.9 6.5-2.7 9.2-.8"/><path d="m357.4 365.9-10.2-3.8 4.1.5c1.2.1 2.2.5 3.1 1.2l3 2.1z"/><path d="M326.4 353.7c-10.7 6.5-10.7 12.3-8.9 17.9 1.8 5.5 8.3 9.4 13.8 7.3 3.1-1.2 5.3-3.8 7.2-6.5 1.9-2.7 3.7-5.6 6.4-7.5 1.8-1.3 4.2-2.1 6.4-1.8l-24.9-9.4z" class="st22"/><path class="st12" d="M318.4 360.8c2.8-3.9 9.7-5 14.1-3.1s7.6 5.7 10.4 9.6c2.9 3.8 5.6 7.8 9.6 10.5s9.5 3.6 13.4.9c2.6-1.8 4.1-4.8 4.6-7.9s0-6.3-.6-9.3c-.9-4.5-2.5-9.2-6.1-12-4-3.2-9.5-3.3-14.6-3.2-5.9.2-11.8.6-17.3 2.7-5.6 2-11.2 6.4-13.5 11.8"/><path class="st9" d="M367.3 428V427.1c0-.6-.1-1.5-.1-2.7-.1-2.3-.2-5.7-.3-9.8-.1-4.1-.3-9-.6-14.5-.3-5.4-.7-11.4-1.5-17.6-.4-3.1-.9-6.1-1.8-9-.9-2.8-2-5.4-3.3-7.8s-2.7-4.6-4.1-6.5c-1.5-1.9-3-3.6-4.5-5-3-2.8-5.9-4.5-8-5.5-.5-.2-1-.5-1.4-.6-.4-.2-.8-.3-1-.4-.3-.1-.5-.2-.6-.3-.1-.1-.2-.1-.2-.1s.1 0 .2.1c.2.1.4.1.7.2.3.1.7.2 1.1.4.4.2.9.4 1.4.6 2.1.9 5.1 2.6 8.1 5.4 1.5 1.4 3.1 3.1 4.6 5s2.9 4.1 4.2 6.5c1.3 2.4 2.4 5.1 3.3 7.9.9 2.9 1.4 5.9 1.8 9 .8 6.2 1.2 12.2 1.5 17.7.3 5.4.4 10.4.5 14.5s.1 7.5.1 9.8V427.8c-.1.1-.1.2-.1.2zM371.2 432.8s-.6-1.6-1.2-4.6-1-7.4-.5-12.9 1.9-11.8 4.1-18.7c2.2-6.9 5.2-14.2 7.7-22.1 1.3-4 2.3-7.9 3.1-11.7.7-3.8 1.2-7.6 1.5-11.2.6-7.2.5-13.7.3-19.1s-.5-9.8-.7-12.9c-.1-1.5-.2-2.7-.2-3.5v-1.2.3c0 .2.1.5.1.9.1.8.2 2 .3 3.5.2 3 .6 7.4.8 12.9.2 5.4.3 12-.2 19.2-.3 3.6-.8 7.4-1.5 11.2-.7 3.9-1.8 7.8-3.1 11.8-2.6 7.9-5.5 15.3-7.8 22.1-2.2 6.8-3.7 13.2-4.2 18.6s-.2 9.8.3 12.8c.3 1.5.5 2.7.7 3.4.1.4.2.7.2.9l.3.3z"/><path class="st19" d="M397.7 437.7h-50.2l-1.2-9.7h51.4z"/><path class="st19" d="m352.8 436.6 6.3 28.9h27.3l5.9-28.9z"/><path class="st19" d="M397.7 437.7c0 .1-11 .2-24.6.2s-24.6-.2-24.6-.3c0-.1 11-.2 24.6-.2 13.5 0 24.6.1 24.6.3z"/><path class="st9" d="M389 452c-.1.1-1.5-1.4-4.4-2.5-1.5-.6-3.3-1-5.4-1.1s-4.3.4-6.6 1.2c-2.3.8-4.4 1.7-6.5 2.2s-4 .4-5.6.2c-1.6-.2-2.8-.7-3.6-1.1-.4-.2-.7-.4-.9-.6-.2-.1-.3-.2-.3-.2l1.2.6c.8.4 2 .8 3.6 1s3.5.2 5.5-.3 4.1-1.4 6.5-2.2c2.3-.8 4.6-1.3 6.8-1.2 2.1.1 4 .6 5.5 1.2s2.6 1.4 3.3 1.9c.4.3.6.5.8.7.1.1.1.2.1.2z"/><path class="st6" d="M388.7 453.9c-.1.1-1.4-1.3-4.2-2.5-1.4-.6-3.2-1-5.2-1.1s-4.2.4-6.4 1.2c-2.2.7-4.3 1.6-6.3 2.1s-3.8.7-5.4.6-2.8-.5-3.5-.9c-.4-.2-.7-.4-.8-.5-.2-.1-.3-.2-.3-.2l1.2.6c.8.3 2 .7 3.5.8 1.5.1 3.3-.1 5.3-.7 1.9-.5 4-1.4 6.2-2.2 2.2-.8 4.5-1.2 6.6-1.1s3.9.6 5.3 1.2 2.5 1.4 3.1 1.9c.3.3.6.5.7.7.1 0 .2.1.2.1zM389.5 450c-.1.1-1.5-1.4-4.5-2.7-1.5-.6-3.4-1.2-5.5-1.3-2.1-.2-4.5.4-6.8 1.2-2.4.8-4.6 1.8-6.7 2.2-2.2.4-4.2.3-5.8 0-1.6-.3-2.9-.7-3.7-1.2-.4-.2-.7-.4-.9-.6-.2-.1-.3-.2-.3-.2s.4.3 1.3.6c.8.4 2.1.8 3.7 1s3.6.3 5.7-.1 4.3-1.4 6.7-2.2c2.4-.8 4.8-1.4 7-1.2 2.2.2 4.1.8 5.6 1.5s2.6 1.5 3.3 2c.4.3.6.5.8.7.1.2.1.3.1.3z"/><path class="st9" d="M398.1 437.7c0 .1-11.3.2-25.2.2-13.9 0-25.2-.1-25.2-.2s11.3-.2 25.2-.2c13.9 0 25.2.1 25.2.2z"/></g><g id="Character"><path class="st9" d="M128.6 104s4.1 17.8 4.1 30.3v4.2s-10.7 8.3-19.4 8.5l-6.7-18.2 22-24.8z"/><path class="st18" d="m159 177.3-15.5 11.1.4 4.2 4.5 8.6s2 1.7 7.4-4.2 12.1-17.6 12.1-17.6l-8.9-2.1z"/><path class="st9" d="M188.8 151.2c-.2-.5-.7-.8-1.2-.8l-8.8-.9c-.8-.1-1.5.2-2.1.7l-24.1 22.9 1.2 1.1 9.5 2 25.8-24.5-.3-.5z"/><path class="st6" d="M181.9 153.2c.1.2.5.2.7 0 .3-.2.4-.5.2-.7-.1-.2-.5-.2-.7 0s-.3.5-.2.7z"/><path class="st19" d="M189 151.6s-.6 0-1.7-.1c-1.2-.1-2.8-.2-4.7-.4-1-.1-2.1-.2-3.2-.3-.5-.1-1.1.1-1.5.5s-.9.9-1.4 1.3c-1.9 1.8-4 3.8-6.2 5.9-4.4 4.1-8.4 7.9-11.3 10.6-1.4 1.3-2.6 2.4-3.5 3.2-.8.7-1.3 1.1-1.3 1.1s.4-.5 1.2-1.3c.9-.8 2-1.9 3.3-3.3 2.8-2.8 6.8-6.5 11.2-10.7 2.2-2.1 4.3-4 6.2-5.8.5-.4.9-.9 1.4-1.3.5-.5 1.2-.7 1.8-.6 1.1.1 2.2.2 3.2.4 1.9.2 3.5.4 4.7.6 1.2 0 1.8.1 1.8.2z"/><path class="st18" d="M177.2 159s-.7-.3-1.6 1.7c-.9 2-3.7 7.6-3.7 7.6l-3.5-3.1-5.1-.5s-1.3.7-.7 1.5c.7.7 3.7 2 3.7 2l1.5 3.9-5.9-4.8s-2.4 0-2 1.6c.3 1.5 3.8 6.8 3.8 6.8l-3.3-1.1-3.4-3.4s-1.2-.2-1 .9c.2 1.1 3.4 5.9 3.4 5.9l4.4 3.6s2.8.4 3.2-.3c.5-.7.8-1.9.8-1.9s1.5 0 2-.7c.4-.6.5-1.8.5-1.8s2.2.9 2.8-.3.9-3.7 1-4.8c0-1 3.4-9.8 3.3-10.1.1-.1 1.4-3-.2-2.7z"/><path class="st18" d="M167.3 181.3c0 .1-.5.2-1.4.1-.9-.1-2.1-.3-3.3-.9-1.2-.6-2.1-1.4-2.7-2.1-.6-.7-.8-1.1-.8-1.2.1-.1 1.4 1.6 3.7 2.8 2.4 1.2 4.5 1.2 4.5 1.3zM166.6 179.3c-.1.1-.9-.6-1.6-1.6-.8-1-1.2-1.9-1.1-2 .1-.1.8.7 1.5 1.7.7.9 1.3 1.8 1.2 1.9zM170.2 175.6c-.1.1-.9-.6-1.6-1.6-.7-1-1-2-.9-2.1s.7.8 1.3 1.8c.8 1 1.3 1.8 1.2 1.9zM173.8 172.8c-.1 0-.4-1-1-2.2-.5-1.2-1.1-2.1-1-2.2.1-.1.9.7 1.5 2 .6 1.2.7 2.4.5 2.4z"/><path class="st12" d="M122 149.9s8.1-1.3 12.8 2.5 6.8 8.5 7.4 13.7c.6 5.2 4.3 25.2 4.3 25.2l7.3-9.9 8.1 7.1s-6.8 32.7-13.2 34.9-13.3-5-15-6.3c-1.6-1.4-11.7-67.2-11.7-67.2z"/><path class="st12" d="M122 149.9s13.4 15 14.6 18.8c1.2 3.9 10.2 10.9 10 20.1-.1 5.3-.7 9.7-1.1 12.5-.4 2.4-.3 4.8.1 7.1l4.2 20s-2.6 4.6-9.2 5.3c-6.5.7-23.1 4.6-34.2 0l-7.9-3.9v-31L93 186.1l-13.2-25.8c.1.1 19.8-9 42.2-10.4z"/><path class="st9" d="M149 224.4s0-.2-.1-.7-.2-1.2-.4-2c-.3-1.8-.8-4.3-1.4-7.3-.3-1.5-.8-3.2-1-5-.1-.5-.1-.9-.2-1.4 0-.5-.1-1-.1-1.4-.1-1-.1-2-.1-3 .1-2.1.5-4.2 1.1-6.4s1.3-4.5 1.2-6.9-.9-4.7-1.7-6.8c-.9-2.1-2-4-3.1-5.8-2.2-3.5-4.4-6.5-6.3-9.1-1.8-2.5-3.3-4.6-4.3-6-.5-.7-.9-1.2-1.2-1.6.3.4.6 1 1.1 1.7 1 1.5 2.4 3.6 4.2 6.1 1.8 2.6 4 5.6 6.1 9.1 1.1 1.8 2.1 3.7 3 5.7.9 2.1 1.6 4.3 1.7 6.6.1 2.4-.6 4.6-1.2 6.8s-1 4.4-1.1 6.5c0 1 0 2.1.1 3.1 0 .5.1 1 .1 1.5.1.5.2.9.2 1.4.3 1.8.8 3.5 1.1 5 .7 3 1.2 5.5 1.6 7.3.2.8.3 1.5.5 2 .1.4.1.6.2.6z"/><path d="M144 201.1c-2.4 7.2-6.7 12.9-11.5 18.7-4.9 5.8-11.6 9.9-18.3 11.1 10.8-9.3 19.8-19.6 29.8-29.8" class="st22"/><path class="st12" d="m139.1 434.3-1.3 19.7s19.6 7.9 19.7 11.6l-38.3-1.1.8-30.7 19.1.5z"/><path class="st2" d="M126 452c-.7.2-1.3 1-1.1 1.8.1.8 1 1.3 1.7 1.1.7-.2 1.4-1.1 1.2-1.9-.2-.7-1.2-1.3-1.9-1"/><path class="st9" d="m119.2 465.8.1-3.5 36.8 1.3s1.7.8 1.5 2l-38.4.2zM138.4 453.8c0 .2-.9.2-1.9.8-1 .5-1.4 1.3-1.6 1.3-.2 0 .1-1.1 1.3-1.8 1.1-.7 2.3-.5 2.2-.3zM142.4 455.6c0 .2-.8.5-1.4 1.2-.7.8-.9 1.6-1.1 1.6-.2 0-.3-1.1.6-2 .8-.9 1.9-1 1.9-.8zM144.5 460.5c-.2 0-.4-.9.1-1.9s1.4-1.4 1.5-1.2c.1.2-.5.7-.9 1.5s-.5 1.5-.7 1.6zM138.2 449.3c-.1.2-.9-.1-2-.1s-1.9.3-2 .2c-.1-.1.7-.8 2-.8 1.3-.1 2.1.5 2 .7z"/><path class="st12" d="m103.8 434.7-1.1 19.7s19.6 7.8 19.8 11.4l-38.2-.8.5-30.8 19 .5z"/><path class="st2" d="M90.9 452.5c-.7.2-1.3 1-1.1 1.8.2.8 1 1.3 1.7 1.1.7-.2 1.4-1.1 1.2-1.9-.2-.7-1.3-1.3-1.9-1"/><path class="st9" d="M84.2 465.8v-3l36.8 1s1.7.8 1.5 2H84.2zM103.3 454.2c0 .2-.9.3-1.9.8-.9.6-1.4 1.4-1.6 1.3-.2 0 .1-1.2 1.3-1.8 1.2-.7 2.3-.5 2.2-.3zM107.3 455.9c0 .2-.8.5-1.4 1.3-.7.8-.9 1.6-1 1.6-.2 0-.3-1.1.5-2 .8-1 1.9-1 1.9-.9zM109.5 460.8c-.2 0-.4-.9.1-1.9s1.4-1.4 1.5-1.2c.1.2-.5.7-.9 1.5s-.5 1.6-.7 1.6zM103.1 449.7c-.1.2-.9-.1-2-.1s-1.9.4-2 .2c-.1-.1.7-.8 2-.9 1.2 0 2.1.6 2 .8zM98 229.2s-9.7 10.2-14.9 22.8c-5.1 12.6-2.9 73.2-2.9 73.2l1.1 31.8s-1.5 27.3-.4 46.8c1.2 19.5 2.5 41 2.5 41l21.2 1 22.5-165.1-5.6 76.2c-3.6 19.4-3.2 53.7-2.5 89h22.5s7.8-52.7 9.5-65.2c2-14.2 7.9-53.1 7.9-53.1s4.5-37.2 3-57.3c-1.6-20.1-13.5-48.1-13.9-49.3l-48.1 8.7"/><path class="st19" d="m95.6 223.8-5.6 15s-41.9 58.4-40.7 63.3 24 23.7 30.7 20.7 24-15.5 29.8-28 22.2-47.5 22.2-47.5l5.2-9.7-5.8-4-35.8-9.8zM148.5 221.7c-5.1 2.7-4.5 11.2-9.6 14 8.5 11.9 11.4 26.8 12.5 41.3 1.2 14.5.8 29.2 3.7 43.5 6.2-.4 4.3-.3 10.5-.7 1.8-28-1.3-56.4-9-83.4-1.5-5.4-4.3-10.5-8.1-14.7z"/><path class="st9" d="M107.5 246.3c0 .1-1-.1-2.6-.6s-3.8-1.2-6.2-2.2c-2.4-1-4.4-2.1-5.9-2.9-1.4-.8-2.3-1.4-2.3-1.5s1 .4 2.4 1.2c1.5.8 3.6 1.8 5.9 2.8s4.5 1.8 6.1 2.4c1.7.4 2.6.8 2.6.8z"/><path d="m80.3 290.8-1 .1c6.9 7.2 18.5 9.3 27.5 5.1 3.1-1.4 6.1-4.1 6-7.5-10.3 3.6-21.7 4.5-32.5 2.3z" class="st23"/><path class="st19" d="M132.7 237.6c-3.9-.7-11.4 1.3-14.2 4.2-2.8 2.9-4.4 6.6-5.8 10.4-2.9 8.1-5 17.1-11.4 22.9-6 5.5-14.5 6.9-22.5 8.2-.2 3-.2 6.5 2.3 8.2.7.5 1.6.8 2.4 1 2.4.7 4.8 1.1 7.3 1.3 11.4.9 23.5-3.7 30.2-13 8.5-11.8 9.2-25.9 13.9-39.6"/><path class="st9" d="M134.9 241.3s0 .1-.1.4c-.1.3-.2.7-.4 1.3-.4 1.1-.8 2.7-1.4 4.8-.6 2.1-1.2 4.7-1.9 7.7s-1.6 6.5-2.7 10.2c-1.2 3.7-2.7 7.8-5 11.8-1.1 2-2.5 4-4.1 5.8s-3.6 3.5-5.7 5c-4.3 2.9-9.6 4.8-15.2 5.6-2.8.4-5.7.4-8.6.1-1.5-.2-2.9-.4-4.4-.7-.7-.2-1.4-.3-2.2-.5-.7-.2-1.5-.5-2.1-.9-.7-.5-1.3-1.1-1.6-1.8-.4-.7-.6-1.5-.8-2.2-.3-1.5-.2-3.1-.1-4.5v-.2h.2c5.4-.8 10.6-1.7 15.3-3.7 2.3-1 4.5-2.2 6.4-3.8 1.9-1.5 3.4-3.4 4.7-5.3 2.5-3.9 4-8.1 5.3-11.9 1.3-3.9 2.5-7.5 4-10.7.8-1.6 1.6-3 2.6-4.3.5-.6 1-1.2 1.5-1.7s1.1-1 1.7-1.3c2.4-1.4 4.7-2.1 6.6-2.5s3.4-.5 4.4-.4c1 0 1.5.2 1.5.2s-.5-.1-1.5-.1-2.5.1-4.4.5-4.2 1.1-6.5 2.5c-.6.4-1.1.8-1.6 1.3s-1 1.1-1.5 1.7c-.9 1.2-1.8 2.7-2.5 4.2-1.5 3.1-2.6 6.8-3.9 10.7-1.3 3.9-2.8 8.1-5.3 12-1.3 2-2.8 3.8-4.7 5.4-1.9 1.6-4.1 2.8-6.5 3.8-4.7 2-10 2.9-15.4 3.7l.2-.2c-.1 1.4-.2 2.9.1 4.4.2 1.4.9 2.9 2.2 3.7 1.2.7 2.7 1 4.1 1.4 1.4.3 2.9.6 4.3.7 2.9.3 5.7.3 8.5-.1 5.5-.7 10.7-2.6 15-5.4 2.1-1.4 4-3.1 5.7-4.9 1.6-1.8 3-3.8 4.1-5.7 2.3-3.9 3.8-8 5-11.7 1.2-3.7 2-7.2 2.8-10.2.8-3 1.4-5.6 2-7.7.6-2.1 1.1-3.7 1.5-4.8.2-.5.3-.9.4-1.2-.1-.4 0-.5 0-.5z"/><path class="st9" d="M87.7 293.2c-.2 0 1.1-2.5.7-5.8-.3-3.3-2-5.4-1.9-5.5 0 0 .5.4 1.1 1.4.6.9 1.1 2.4 1.3 4.1.2 1.7-.1 3.2-.4 4.3-.4 1-.7 1.6-.8 1.5z"/><path class="st9" d="M88 285.9c0 .1-2 .4-4.5.6s-4.5.2-4.5 0c0-.1 2-.4 4.5-.6 2.5-.1 4.5-.1 4.5 0zM88.8 289.2c0 .1-2.1.3-4.7.4s-4.7 0-4.7-.2c0-.1 2.1-.3 4.7-.4 2.6 0 4.7.1 4.7.2z"/><path class="st19" d="M142.3 240.2c7 6.3 9.6 16.4 9.4 25.8-.3 9.4-3 18.6-5.1 27.8-2.1 9.2-3.6 18.9-1.3 28.1-3 .4-6 .9-9 1.3-7.3-7.8-11.1-18.8-10-29.5.9-8.8 4.9-16.9 7.8-25.3 2.9-8.4 4.6-17.8 1-25.9"/><path class="st9" d="M135 242.5s.1.1.2.4c.1.3.3.7.5 1.2.4 1.1.9 2.6 1.2 4.8.3 2.1.4 4.8.1 7.8-.3 3-1.1 6.5-2.2 10.1-1.2 3.7-2.7 7.6-4.3 11.8-1.5 4.2-3.1 8.8-3.8 13.9-.7 5-.3 10.5 1.3 15.8s4.4 10.5 8.5 14.8l-.2-.1c1.4-.2 2.9-.4 4.4-.6 1.6-.2 3.1-.4 4.6-.7l-.2.3c-1.4-5.8-1.3-11.7-.7-17.3.7-5.5 1.9-10.8 3.2-15.7 1.2-4.9 2.4-9.6 3.1-14.1.7-4.4 1.1-8.6.9-12.5-.4-7.7-2.7-13.6-5-17.1-1.1-1.8-2.2-3-3-3.9l-.9-.9-.3-.3.3.3.9.9c.8.8 1.9 2 3.1 3.8 2.4 3.5 4.8 9.5 5.2 17.2.2 3.8-.1 8.1-.8 12.5-.7 4.5-1.9 9.2-3.1 14.1-1.2 5-2.4 10.2-3.1 15.7-.7 5.5-.7 11.3.7 17.1l.1.3h-.3c-1.4.2-3 .4-4.6.7-1.5.2-3 .4-4.4.6h-.1l-.1-.1c-4.1-4.4-7-9.6-8.6-15s-2-10.9-1.3-16 2.3-9.7 3.9-14c1.6-4.2 3.2-8.1 4.3-11.8 1.2-3.6 1.9-7 2.3-10.1.3-3 .3-5.6 0-7.7-.3-2.1-.8-3.7-1.1-4.8-.2-.5-.3-.9-.4-1.2-.2-.1-.3-.2-.3-.2z"/><path class="st9" d="M143.8 314.6c0 .2-2.8-.4-6.3.1-3.4.4-6 1.7-6.1 1.5 0-.1.6-.4 1.6-.9 1.1-.5 2.6-.9 4.4-1.2 1.8-.2 3.4-.2 4.5 0 1.2.3 1.9.5 1.9.5z"/><path class="st9" d="M138.5 322.9c-.1.1-1.1-1.5-2.1-3.6-1-2-1.8-3.7-1.6-3.8.1-.1 1.1 1.5 2.1 3.6s1.8 3.8 1.6 3.8zM143.2 322.3c-.1.1-1-1.7-1.9-3.8-.9-2.2-1.6-4-1.5-4 .1-.1 1 1.7 1.9 3.8 1 2.1 1.7 3.9 1.5 4zM130.3 237.3c-.1 0-.2-.2-.3-.6-.1-.4 0-1 .2-1.6.3-.6.7-1 1-1.2s.6-.3.6-.2c.1.1-.7.6-1.2 1.6-.3 1-.1 1.9-.3 2z"/><path class="st19" d="M142 235.1c-1.2-1.9-4.1-2.6-6.3-2.8-2.8-.2-5.4 2.1-5.7 4.9-.3 2.8 1.8 5.5 4.4 6.2 2.7.7 5.7-.5 7.2-2.8 1.1-1.7 1.4-3.9.4-5.5z"/><path class="st9" d="M137 233.3s.6.4 1.2 1.4c.6 1 1 2.7.5 4.4-.5 1.8-1.7 3-2.7 3.6s-1.7.7-1.7.6c0-.1.7-.3 1.5-.9.9-.6 1.9-1.8 2.4-3.4.4-1.6.1-3.2-.4-4.1-.4-1-.9-1.5-.8-1.6zM141.5 234.3s.4.3.7.9c.3.7.6 1.7.5 2.8s-.6 2.1-1.1 2.7c-.5.6-.9.8-.9.8-.1-.1.2-.4.6-1 .4-.6.7-1.5.8-2.5s-.1-2-.3-2.6c-.2-.6-.4-1-.3-1.1z"/><path d="M142.1 240.2c-1.8 2.1-4.1 2.9-6.8 3.1.5 1.2 2.2 2.4 3.5 2.4 1.3.1 2.7-.6 3.4-1.8.7-1.1.7-2.6-.1-3.7zM110.1 249c-.9-1.1-2.4-1.7-3.8-2.2-5.2-1.9-10.8-5.1-16-7 4.8 4.2 9.9 9.2 15.4 12.4 1.3.8 3 1.5 4.3.6 1.2-.7 1.1-2.7.1-3.8zM153.3 258.4c-.8-6.3-3.7-12.4-8.8-16.2 2.7 4.9 5.5 10 6.7 15.5 1.3 6.1.4 9.9-.2 16.1l.6 3c1.6-6.1 2.5-12.2 1.7-18.4z" class="st23"/><path class="st9" d="M107.3 253.3s-.3-.1-.8-.4c-.5-.3-1.2-.7-2.1-1.3-1.7-1.1-4-2.8-6.4-4.9-2.4-2.1-4.4-4.1-5.8-5.7-.7-.8-1.2-1.4-1.6-1.9s-.5-.7-.5-.7c.1-.1.9.9 2.4 2.4 1.4 1.5 3.5 3.5 5.8 5.5 2.4 2 4.6 3.8 6.3 5 1.7 1.2 2.8 1.9 2.7 2z"/><path class="st12" d="M84.5 158.5s-21.1 6.2-13.8 30.4c5.9 19.2 26.7 47.2 34.2 45.7 14.6-2.8 47.7-44.3 47.8-43.6l-7.5-10.3s-37.3 31.9-38.8 31.3c-1.4-.6-14.6-33.5-14.6-33.5s-4.2-19.2-7.3-20z"/><path class="st17" d="m145.4 181 6.5-10.3 11.3-10s.6 2 0 2.8-1.7 3-1.7 3 9.6-7.3 11-7.3 1 1.4.9 2.1c-.1.7-8 7.3-8 7.3l8.2.3 5.1 2.6s-.3 1.9-2 1.7c-1.7-.1-4-1.2-4-1.2l-7 .9 7.8 3.2 3.3 4.9s-1.1 2-2.6.7c-1.4-1.3-2.4-2.7-2.4-2.7l-5.8-1.3 5.4 3.5 1.1 4.3s-1.9 1.9-2.6 0c-.7-1.9-1.1-2.7-1.1-2.7l-3.1-.7s-1.8 2.2-5.1 3.1c-3.4.9-8.4 4.7-8.4 4.7l-6.8-8.9z"/><path class="st18" d="M155.3 169.6c0 .1 1.7-.5 3.5-1.5 1.9-1 3.2-2.1 3.2-2.2-.1-.1-1.5.8-3.4 1.8-1.8 1-3.4 1.8-3.3 1.9zM163 172.4s.3 0 .6-.2.6-.7.7-1.3c.1-.6-.2-1.1-.4-1.4-.2-.3-.5-.4-.5-.3-.1.1.6.7.5 1.7-.2.9-1 1.4-.9 1.5z"/><path class="st9" d="M82.4 111.2c1.7-7.4 3.5-15 9.6-19.5 5.4-4 11.5-4.9 18.2-4.4 3.3.2 7 1.9 9.8 3.6 3.9 2.4 5.4 7 7.2 11.2 3.6 8.4 2.7 19.6 0 22.6L92 141.8c-6-3.4-10.1-5-11.5-11.8-.8-4.5.8-14.2 1.9-18.8z"/><path class="st17" d="m92.6 98.6 22-5.7c7-.8 11.8 7.9 12.3 14.9.5 7.9.9 17.5 0 23.3-1.8 11.8-10.8 13.4-10.8 13.4s0 .2-.1 3.7l.1 7.9c-2.9 9.6-12.6 8.4-24.7 3.4L89 102.8c-.2-2.1 1.4-4 3.6-4.2z"/><path class="st9" d="M123.9 118.2c0 .8-.6 1.5-1.4 1.5-.8.1-1.5-.6-1.6-1.4 0-.8.6-1.5 1.4-1.5.9 0 1.6.6 1.6 1.4zM124.8 114.8c-.2.2-1.3-.6-3-.6-1.6 0-2.8.8-3 .6-.1-.1.1-.4.6-.8s1.4-.8 2.4-.8 1.9.4 2.4.7c.5.5.6.8.6.9zM109.6 117.8c0 .8-.6 1.5-1.4 1.5-.8.1-1.5-.6-1.6-1.4 0-.8.6-1.5 1.4-1.5.9 0 1.6.6 1.6 1.4zM108.8 114.5c-.2.2-1.3-.6-3-.6-1.6 0-2.8.8-3 .6-.1-.1.1-.4.6-.8s1.4-.8 2.4-.8 1.9.4 2.4.7c.5.5.7.8.6.9zM114.7 125.2c0-.1 1-.3 2.6-.5.4 0 .8-.1.9-.4s-.1-.7-.3-1.2c-.4-1-.8-2.1-1.3-3.2-1.7-4.5-3-8.2-2.8-8.3.2-.1 1.7 3.5 3.5 8 .4 1.1.8 2.2 1.2 3.2.2.5.4 1 .2 1.6-.1.3-.4.5-.7.6-.3.1-.5.1-.7.1-1.5.2-2.5.2-2.6.1z"/><path class="st18" d="M116 144.5s-7.9.6-15.8-4.1c0 0 4 8.2 15.8 7v-2.9zM109.4 128.3c.5-.8 1.3-1.2 2.2-1.2 1.2 0 2.3.4 3.1 1.5.3.3.3 1.3.1 1.5-.1.3 0 .1-.2.3-.7.6-1.5 1.3-2.4 1.5s-2.1-.1-2.7-1c-.6-.7-.6-1.8-.1-2.6z"/><path class="st9" d="M109.7 126.5c.3 0 .3 1.7 1.8 3 1.5 1.2 3.4 1 3.4 1.3 0 .1-.4.3-1.2.4-.8 0-1.9-.2-2.9-1-.9-.8-1.3-1.8-1.4-2.5 0-.8.2-1.2.3-1.2zM109.6 108.6c-.1.5-1.8.3-3.7.7-1.9.3-3.4 1-3.7.6-.1-.2.1-.6.7-1.1s1.5-.9 2.7-1.1c1.1-.2 2.2-.1 2.9.2.8.1 1.1.5 1.1.7zM124.8 110.5c-.4.3-1.5-.3-3-.6s-2.8-.2-3-.7c-.1-.2.2-.5.8-.8.6-.2 1.6-.4 2.6-.2s1.8.7 2.3 1.2c.3.5.4.9.3 1.1zM114.3 91.6v.3-.3z"/><path class="st9" d="M97.2 148.6c-.2-3.1 1.1-6.2.9-9.3-.3-3.3-2.3-6.2-3.1-9.4-1.2-5.1.9-10.5 1.7-15.7 3-.3 5.8-1.9 7.8-4.2 2.5-2.7 4-6 5.5-9.3-.2 3.3-1.4 6.5-3.5 9 1.3.3 2.7-.2 3.7-1.1s1.7-2.1 2.3-3.3c1.4-2.9 2.2-6.1 2.4-9.4.3 4.6-.4 9.3-2 13.7.8-.2 1.7 0 2.6.2.8.2 1.8.2 2.5-.4.4-.4.6-1 .7-1.5.9-3.9 1.2-8 .8-12 1 2.2 2 4.4 2.5 6.7s.6 4.8-.2 7.1c.3.4 1 .4 1.5 0 .4-.4.6-.9.7-1.5.4-2 .1-4-.2-6 1.1 2.1 1.4 4.6 2 6.9s1.5 4.7 3.5 6.1c.5-3.4.4-5.8 0-9-.3-2.5-1.4-5-2.4-7.3-1.1-2.6-2.7-5.1-4.6-6.8-3.4-3.2-4.9-1.9-7.1-.8l-.3.1v-.2l-.1-.5c-5.7-1.5-11.9-1.4-17.5.2-4.2 1.2-9.5 5.4-11.8 9.1 0 .1-.1.1-.1.2-5.2 8.7-9.2 21.3-6.2 41.8l18 6.6zM73.6 196.5s.1.2.2.5.3.8.6 1.5c.6 1.3 1.5 3.1 2.8 5.4 2.6 4.6 6.8 11.1 12.6 18.6 1.5 1.9 3 3.8 4.7 5.8.4.5.9 1 1.3 1.4.5.5 1 .9 1.5 1.4 1 .9 1.9 1.9 3.1 2.7s2.7 1.2 4.2 1c1.5-.1 2.9-.5 4.3-1.1l2.1-.9c.3-.2.7-.3 1-.5l1-.6 1-.6.9-.7c.6-.5 1.3-.9 1.9-1.4 4.8-4 9.5-8.7 14.2-13.6 4.7-4.9 9.5-10.1 14.3-15.5 2.6-2.9 5.2-5.8 7.7-8.7l.1-.1-.1-.2c-2.6-3.5-5.1-7-7.5-10.3l-.1-.2-.2.2c-14.9 12.1-28.3 22.8-38.7 31.3l.3.1c-3.8-8.6-7-15.6-9.1-20.4-1.1-2.4-1.9-4.3-2.5-5.5-.3-.6-.5-1.1-.7-1.4-.2-.3-.2-.5-.2-.5s.1.2.2.5.4.8.6 1.5c.6 1.3 1.4 3.2 2.4 5.6 2.1 4.9 5.2 11.8 9 20.5l.1.2.2-.1c10.5-8.4 23.8-19.2 38.8-31.2h-.3c2.4 3.4 4.9 6.8 7.5 10.4v-.3c-2.5 2.9-5.1 5.8-7.7 8.7-4.8 5.4-9.6 10.6-14.3 15.5s-9.4 9.6-14.2 13.6c-.6.5-1.2 1-1.8 1.4l-.9.7-1 .6-1 .6c-.3.2-.7.3-1 .5-.7.3-1.4.6-2 .9-1.4.5-2.8.9-4.2 1-1.4.1-2.8-.2-3.9-1-1.1-.7-2.1-1.7-3.1-2.6-.5-.5-1-.9-1.5-1.4s-.9-1-1.3-1.4c-1.7-1.9-3.3-3.9-4.7-5.7-5.8-7.5-10-13.9-12.7-18.5-1.4-2.3-2.3-4.1-2.9-5.4-.3-.6-.5-1.1-.6-1.5-.3-.7-.4-.8-.4-.8z"/></g></svg>